<svg width="64" height="91" viewBox="0 0 64 91" fill="none" xmlns="http://www.w3.org/2000/svg">
<path d="M15.0619 0H24.766V4.05807H19.12V8.11614H24.766V12.1742H15.0619V0Z" fill="#111C26"/>
<path d="M26.7068 0H36.4109V3.52876H30.7649V4.23451H36.4109V12.3506H26.7068V8.64545H32.3528V7.9397H26.7068V0Z" fill="#111C26"/>
<path d="M38.3517 0H48.0558V3.52876H42.4098V4.23451H48.0558V12.3506H38.3517V8.64545H43.9977V7.9397H38.3517V0Z" fill="#111C26"/>
<path fill-rule="evenodd" clip-rule="evenodd" d="M58.1694 83.0703L64 17.7532H0L5.82439 83.0805L31.9608 90.3362L58.1694 83.0703ZM31.9723 31.1069H11.9094L12.6377 39.1192H31.9723H32H43.2622L42.5332 47.3237H31.9723V47.3237H13.3522L14.0703 55.3358H31.9999V55.3357H41.8383L40.9083 65.7269L31.9723 68.1388V68.1393L31.9649 68.1413L23.0417 65.7318L22.4713 59.3418H18.1353H14.4283L15.5508 71.922L31.9631 76.4781L32 76.4679V76.4667L48.3976 71.9221L48.5181 70.5685L50.4009 49.4752L50.5964 47.3237L52.0428 31.1069H32H31.9723Z" fill="#111C26"/>
</svg>
