<svg width="16" height="16" viewBox="0 0 16 16" fill="none" xmlns="http://www.w3.org/2000/svg">
<path d="M6.67745 15.9997C7.89714 15.9997 8.58484 15.5062 8.96293 15.0352C9.62821 14.2067 9.70577 12.9829 9.44523 11.9417C9.92814 12.1738 10.5586 12.4611 11.2072 12.6608C12.2394 12.9788 13.0034 12.9776 13.5424 12.6573C14.0447 12.3591 14.3034 11.8128 14.3119 11.0338C14.3246 9.87849 13.5178 9.48709 12.898 9.31306C13.9186 8.92254 15.5603 8.27482 15.9263 7.08232C16.1054 6.4986 15.9578 5.87447 15.4873 5.22793C15.1613 4.7796 14.7427 4.52918 14.2425 4.48317C13.3424 4.40058 12.3693 5.01881 11.5617 5.68246C11.9837 4.81558 12.3118 3.74342 12.0252 2.70134C11.7701 1.7743 11.0712 1.01213 9.94783 0.436082C8.96475 -0.0682922 8.1186 -0.135542 7.43332 0.236397C6.75319 0.605091 6.27876 1.3705 5.98217 2.57628C5.75011 3.52014 5.67589 4.55986 5.62681 5.24799C5.6159 5.40195 5.60409 5.56624 5.59197 5.7034C5.40838 5.61403 5.17056 5.48749 4.96274 5.37718C3.72245 4.71825 2.02409 3.81568 0.991628 4.20591C0.654441 4.33333 0.409655 4.58906 0.283626 4.94536C-0.124754 6.10247 -0.0920363 7.05518 0.381176 7.77664C1.21551 9.04849 3.19894 9.24876 4.38379 9.36822C4.56526 9.38651 4.77248 9.40745 4.93396 9.43016C4.87761 9.55493 4.8049 9.70624 4.73704 9.84811C4.44832 10.451 4.05297 11.2763 3.80485 12.1379C3.49038 13.2301 3.50038 14.0742 3.83545 14.7193C4.15203 15.3284 4.74552 15.7219 5.59954 15.8882C5.99823 15.9661 6.35602 16 6.67715 16L6.67745 15.9997ZM8.80782 10.8802C8.71814 10.8802 8.62392 10.907 8.5394 10.9875C8.41883 11.102 8.38883 11.2745 8.46245 11.4267C8.90718 12.344 9.02473 13.7613 8.36642 14.5813C7.8623 15.2089 6.98162 15.4054 5.7486 15.165C5.12542 15.0435 4.72098 14.7889 4.51164 14.3863C3.933 13.2725 4.90306 11.2477 5.42414 10.1599C5.53774 9.92274 5.6359 9.71774 5.69831 9.56437C5.75829 9.41659 5.89886 9.07002 5.61378 8.87328C5.41535 8.73643 5.10028 8.69926 4.46256 8.63496C3.34557 8.52229 1.65752 8.3518 1.02011 7.37993C0.677467 6.85726 0.670801 6.11899 1.00041 5.18487C1.06949 4.98902 1.17855 4.92619 1.2658 4.89316C1.97077 4.62711 3.68124 5.53616 4.6001 6.02431C4.89548 6.18123 5.15087 6.31691 5.35173 6.40923C5.55228 6.50125 5.85524 6.64047 6.09669 6.47618C6.30906 6.33136 6.32603 6.09215 6.38268 5.29901C6.47054 4.06698 6.65322 1.50353 7.80201 0.88058C8.24948 0.637831 8.85265 0.707736 9.59489 1.08852C10.524 1.56517 11.0954 2.1719 11.2935 2.89247C11.6707 4.26401 10.6867 5.78363 10.1581 6.60036C9.85695 7.06521 9.71971 7.27758 9.86967 7.52121C9.93299 7.62415 10.0396 7.69199 10.1617 7.70792C10.4129 7.74036 10.5698 7.59288 11.0909 7.10444C11.8273 6.41395 13.1994 5.12794 14.1713 5.21761C14.4455 5.24268 14.6739 5.38573 14.8693 5.65444C15.2029 6.11309 15.3113 6.51128 15.2007 6.87172C14.9332 7.74331 13.4491 8.3108 12.562 8.64971C12.3387 8.73495 12.1461 8.80869 12.0025 8.87535C11.867 8.93818 11.5856 9.06884 11.5762 9.35229C11.5729 9.45346 11.6026 9.70299 11.947 9.83572C12.0594 9.87908 12.1921 9.90769 12.346 9.94043C13.0589 10.0935 13.5627 10.2611 13.5545 11.0262C13.5487 11.5412 13.4157 11.8689 13.1479 12.0281C12.8162 12.2252 12.2239 12.201 11.4353 11.9579C10.7067 11.7335 9.97994 11.3789 9.49916 11.1441C9.34011 11.0666 9.21468 11.0052 9.11743 10.9625C9.04654 10.9312 8.93112 10.8805 8.80751 10.8805L8.80782 10.8802Z" fill="#EB9DBB"/>
<path d="M8.15314 10.1251C8.18949 10.1251 8.22342 10.123 8.25432 10.1198C8.73299 10.0681 9.15318 9.64253 9.27649 9.08418C9.40918 8.48365 9.165 7.92264 8.63938 7.62002C8.55304 7.57046 8.27523 7.44304 7.96834 7.36665C7.49664 7.24926 7.13673 7.29527 6.89952 7.5041C6.38541 7.95627 6.80257 8.8373 6.93981 9.12665C7.3388 9.96904 7.83807 10.1254 8.15344 10.1254L8.15314 10.1251ZM8.25402 8.25476C8.59908 8.45327 8.56606 8.79247 8.53577 8.92903C8.4773 9.1939 8.30067 9.37264 8.17071 9.3868C8.04468 9.40037 7.83534 9.25791 7.62691 8.81783C7.37637 8.28839 7.40212 8.09047 7.41212 8.04977C7.54996 7.99432 8.04832 8.13914 8.25372 8.25506L8.25402 8.25476Z" fill="#EB9DBB"/>
</svg>
