<svg width="42" height="63" viewBox="0 0 42 63" fill="none" xmlns="http://www.w3.org/2000/svg">
<path fill-rule="evenodd" clip-rule="evenodd" d="M4 11.6855C4 7.38366 7.42124 4 11.5 4H19V19.3065H11.5C11.2448 19.3065 10.9915 19.3149 10.7404 19.3316C7.00521 18.9426 4 15.7173 4 11.6855ZM19 23.371H11.5C11.2448 23.371 10.9915 23.3625 10.7404 23.3458C7.00521 23.7349 4 26.9601 4 30.9919C4 35.2938 7.42124 38.6774 11.5 38.6774H19V30.9943V23.371ZM30.5 19.3065C30.7552 19.3065 31.0085 19.3149 31.2596 19.3316C34.9948 18.9426 38 15.7173 38 11.6855C38 7.38366 34.5788 4 30.5 4H23V19.3065V19.371H29.2854C29.6845 19.3283 30.0898 19.3065 30.5 19.3065ZM42 11.6855C42 15.6944 40.01 19.2338 36.9797 21.3389C40.01 23.4444 42 26.9846 42 30.9943C42 37.4459 36.848 42.6821 30.5 42.6821C27.6352 42.6821 25.014 41.6157 23 39.8524V42.6774V43.629V51.3145C23 57.7649 17.848 63 11.5 63C5.152 63 0 57.7649 0 51.3145C0 46.9629 2.3448 43.1644 5.81975 41.1532C2.3448 39.1421 0 35.3436 0 30.9919C0 26.9832 1.98986 23.4438 5.02002 21.3387C1.98986 19.2336 0 15.6942 0 11.6855C0 5.2351 5.152 0 11.5 0H19H23H30.5C36.848 0 42 5.2351 42 11.6855ZM30.5 23.371H29.5292C25.8932 23.8573 23 27.0369 23 30.9943C23 35.2981 26.422 38.6821 30.5 38.6821C34.578 38.6821 38 35.2981 38 30.9943C38 26.9606 34.9942 23.7349 31.2595 23.3458C31.0085 23.3625 30.7552 23.371 30.5 23.371ZM19 51.3145C19 55.6163 15.5788 59 11.5 59C7.42124 59 4 55.6163 4 51.3145C4 47.0127 7.42124 43.629 11.5 43.629H19V51.3145Z" fill="#111C26"/>
</svg>
