<svg width="130" height="134" viewBox="0 0 130 134" fill="none" xmlns="http://www.w3.org/2000/svg">
<path d="M75.7457 133.998C65.8357 133.998 60.2481 129.865 57.1762 125.92C51.7708 118.981 51.1406 108.732 53.2575 100.012C49.3339 101.956 44.2115 104.362 38.9414 106.034C30.5551 108.697 24.3473 108.687 19.9683 106.005C15.8871 103.507 13.785 98.9323 13.7161 92.4084C13.6127 82.7324 20.1676 79.4544 25.2039 77.9969C16.9111 74.7263 3.57225 69.3016 0.598769 59.3144C-0.855974 54.4258 0.342771 49.1987 4.16547 43.7839C6.81404 40.0291 10.2158 37.9319 14.2798 37.5465C21.5929 36.8548 29.4992 42.0325 36.0615 47.5906C32.6326 40.3305 29.9668 31.3511 32.2954 22.6237C34.368 14.8597 40.0467 8.47659 49.1739 3.65219C57.1614 -0.571947 64.0364 -1.13516 69.6043 1.97982C75.1303 5.06764 78.985 11.4779 81.3948 21.5763C83.2804 29.4811 83.8834 38.1888 84.2822 43.9519C84.3708 45.2414 84.4668 46.6173 84.5653 47.766C86.0569 47.0175 87.9892 45.9577 89.6777 45.0339C99.7551 39.5153 113.554 31.9563 121.943 35.2245C124.683 36.2916 126.672 38.4333 127.696 41.4174C131.014 51.1082 130.748 59.0871 126.903 65.1294C120.124 75.7811 104.009 77.4584 94.3817 78.4588C92.9073 78.612 91.2236 78.7874 89.9116 78.9776C90.3694 80.0225 90.9602 81.2897 91.5116 82.4779C93.8574 87.5271 97.0696 94.4389 99.0856 101.655C101.641 110.802 101.559 117.872 98.837 123.274C96.2647 128.375 91.4427 131.671 84.5037 133.064C81.2644 133.716 78.3573 134 75.7482 134L75.7457 133.998ZM58.4365 91.1214C59.1651 91.1214 59.9306 91.3461 60.6174 92.0205C61.597 92.979 61.8407 94.4241 61.2426 95.6987C57.6291 103.381 56.674 115.251 62.0229 122.118C66.1188 127.375 73.2744 129.02 83.2926 127.007C88.3559 125.989 91.642 123.857 93.3429 120.485C98.0444 111.158 90.1627 94.1993 85.9289 85.089C85.0058 83.1029 84.2083 81.3861 83.7013 80.1016C83.2139 78.864 82.0717 75.9614 84.388 74.3138C86.0003 73.1676 88.5602 72.8563 93.7417 72.3178C102.817 71.3742 116.533 69.9464 121.712 61.8069C124.496 57.4296 124.55 51.2465 121.872 43.4233C121.31 41.783 120.424 41.2568 119.715 40.9802C113.987 38.752 100.09 46.3653 92.6242 50.4536C90.2242 51.7678 88.1492 52.9041 86.5172 53.6773C84.8877 54.448 82.4262 55.6139 80.4644 54.238C78.7389 53.0251 78.601 51.0217 78.1407 44.3792C77.4269 34.061 75.9426 12.592 66.6086 7.37486C62.973 5.34184 58.0722 5.92729 52.0415 9.11638C44.4921 13.1083 39.8497 18.1896 38.2399 24.2244C35.1754 35.7111 43.1703 48.4379 47.4656 55.278C49.9123 59.1711 51.0274 60.9497 49.8089 62.9901C49.2945 63.8522 48.428 64.4204 47.4361 64.5538C45.3955 64.8255 44.1204 63.5904 39.8867 59.4997C33.9028 53.7168 22.7547 42.9465 14.8582 43.6974C12.6305 43.9074 10.7746 45.1055 9.18692 47.3559C6.47682 51.1971 5.5956 54.532 6.49405 57.5506C8.66755 64.8502 20.7264 69.603 27.9337 72.4413C29.7478 73.1552 31.3133 73.7728 32.48 74.3311C33.5803 74.8572 35.8671 75.9515 35.9434 78.3254C35.9704 79.1727 35.7292 81.2626 32.9305 82.3742C32.0173 82.7373 30.9391 82.9769 29.6887 83.2511C23.8968 84.5332 19.8033 85.9363 19.8698 92.3441C19.9166 96.6572 20.9972 99.4016 23.1731 100.736C25.8685 102.386 30.6807 102.183 37.088 100.148C43.0079 98.2678 48.913 95.2985 52.8193 93.3322C54.1116 92.6826 55.1307 92.1687 55.9208 91.8106C56.4968 91.5487 57.4347 91.1238 58.439 91.1238L58.4365 91.1214Z" fill="#A3CBF0"/>
<path d="M63.7558 84.7975C63.4604 84.7975 63.1847 84.7802 62.9336 84.753C59.0445 84.3207 55.6304 80.7562 54.6286 76.08C53.5504 71.0506 55.5344 66.3521 59.8051 63.8176C60.5066 63.4026 62.7638 62.3355 65.2573 61.6957C69.0898 60.7125 72.0141 61.0979 73.9414 62.8468C78.1186 66.6337 74.7291 74.0124 73.6141 76.4357C70.3723 83.4907 66.3157 84.8 63.7533 84.8L63.7558 84.7975ZM62.9361 69.1336C60.1325 70.7961 60.4007 73.6369 60.6469 74.7806C61.122 76.9989 62.557 78.4959 63.613 78.6145C64.637 78.7281 66.3379 77.535 68.0314 73.8493C70.067 69.4152 69.8578 67.7577 69.7766 67.4168C68.6566 66.9524 64.6074 68.1653 62.9385 69.1361L62.9361 69.1336Z" fill="#A3CBF0"/>
</svg>
