<svg width="114" height="136" viewBox="0 0 114 136" fill="none" xmlns="http://www.w3.org/2000/svg">
<path d="M76.5917 136C68.6695 136 62.1657 133.933 57.2039 129.825C49.383 123.352 47.374 113.411 46.7217 107.3C37.003 113.911 27.5266 116.534 19.6785 114.704C12.4507 113.019 6.68822 107.766 2.5591 99.0908C-0.492643 92.6843 -0.81635 86.5833 1.59539 80.9576C7.53332 67.1102 28.6583 60.1373 40.0103 56.3885C41.2804 55.9697 42.6395 55.5215 43.7441 55.1298C43.6106 54.9254 43.4747 54.7185 43.3413 54.519C39.0738 48.0436 30.1978 34.5705 33.9686 21.0261C36.2518 12.8339 42.7853 6.10477 53.3886 1.02345L53.5195 0.95941L53.6554 0.910148C56.4576 -0.12188 60.5571 -0.7943 64.1648 1.85351C68.0295 4.69097 70.2683 10.6122 71.0047 19.9596C71.5705 27.1591 71.1653 34.9104 70.8712 40.5706C70.8095 41.7726 70.7403 43.0509 70.6983 44.1445C70.9478 44.0903 71.1974 44.0337 71.442 43.9819C80.8419 41.908 100.403 37.5927 109.457 46.0312C113.282 49.5978 114.703 54.8195 113.677 61.556C112.069 72.13 107.294 78.9946 99.4909 81.9626C94.2819 83.9429 88.8012 83.7212 84.8154 83.3123C88.0524 88.0193 92.9056 95.0932 96.4614 102.635C101.1 112.475 102.086 120.047 99.4761 125.786C96.9754 131.286 91.3463 134.594 82.7446 135.618C80.6072 135.872 78.5537 136 76.5892 136H76.5917ZM49.2347 98.5612C49.7092 98.5612 50.1836 98.6672 50.621 98.8814C52.3557 99.7361 52.4595 101.295 52.6028 103.453C52.9092 108.064 53.6233 118.857 61.1501 125.086C65.986 129.089 73.0062 130.574 82.0107 129.502C88.3193 128.751 92.3026 126.643 93.8495 123.241C95.641 119.3 94.6402 113.246 90.8694 105.251C87.5039 98.113 82.7842 91.2459 79.6583 86.7015C76.955 82.7705 76.2285 81.7138 76.1346 80.4059C76.0604 79.3887 76.441 78.4034 77.1773 77.7064C78.5883 76.3689 80.3724 76.5857 83.3327 76.9428C86.9652 77.3813 92.4509 78.0438 97.2892 76.2064C102.938 74.0586 106.299 68.9625 107.569 60.6299C108.28 55.9574 107.517 52.6544 105.236 50.5288C102.491 47.9697 97.4103 46.8687 90.1454 47.2529C83.6416 47.5977 77.1007 49.0411 72.7739 49.9943C71.4396 50.2874 70.3869 50.5214 69.5789 50.6667C68.4966 50.8613 66.4777 51.2259 65.2422 49.4869C64.2884 48.1445 64.3674 46.6298 64.701 40.2529C64.9877 34.7627 65.3806 27.2429 64.8468 20.4448C64.0882 10.8019 61.8 7.76489 60.5052 6.81414C59.7935 6.29197 58.5481 5.71068 55.9288 6.64172C47.0825 10.9078 41.698 16.3019 39.9214 22.6739C36.8993 33.5262 44.7374 45.4228 48.5033 51.1396C50.2553 53.7973 50.9793 54.8983 51.0608 56.2136L51.0757 56.4722L51.0485 56.7284C50.8038 59.0067 48.5107 59.9057 47.1393 60.4402C45.8395 60.9501 44.0381 61.5437 41.9526 62.2333C31.5272 65.6743 12.1196 72.0832 7.27633 83.3764C5.56637 87.3641 5.84807 91.64 8.13873 96.4504C11.4228 103.347 15.7792 107.473 21.0846 108.709C22.2781 108.987 23.5334 109.125 24.8405 109.125C31.2356 109.125 38.8835 105.83 46.8279 99.5834C47.1516 99.3297 47.3123 99.2016 47.4828 99.0883C48.0091 98.7386 48.6219 98.5612 49.2347 98.5612V98.5612Z" fill="#A3CBF0"/>
<path d="M59.2895 83.4207C56.7443 83.4207 54.1794 82.5759 52.4521 80.9798C50.2109 78.9059 49.6895 75.9157 51.0609 72.9822C51.5749 71.8812 52.8005 70.0955 54.3771 68.5856C56.6134 66.4452 58.9535 65.4501 61.1527 65.7137C64.454 66.1053 66.6582 68.9304 67.7034 74.1103C68.4027 77.5709 67.0807 80.6079 64.1698 82.2335C62.7317 83.0365 61.0143 83.4256 59.2895 83.4256V83.4207ZM60.3422 71.8467C59.4724 72.0709 57.3572 74.0881 56.6603 75.5807C56.3687 76.2014 56.4824 76.3074 56.6529 76.465C57.5079 77.2556 59.8406 77.5882 61.1478 76.8566C61.4715 76.6768 61.8742 76.4502 61.6444 75.3221C61.1576 72.9083 60.5498 72.0733 60.3397 71.8467H60.3422Z" fill="#A3CBF0"/>
</svg>
