<svg width="65" height="64" viewBox="0 0 65 64" fill="none" xmlns="http://www.w3.org/2000/svg">
<path fill-rule="evenodd" clip-rule="evenodd" d="M33.0063 0.701294C15.2965 0.701294 0.979858 15.1235 0.979858 32.9657C0.979858 47.228 10.153 59.3007 22.8787 63.5736C24.4697 63.8948 25.0525 62.8794 25.0525 62.0252C25.0525 61.2772 25 58.7133 25 56.0419C16.0911 57.9653 14.2358 52.1958 14.2358 52.1958C12.8041 48.4565 10.6827 47.4955 10.6827 47.4955C7.76682 45.519 10.8951 45.519 10.8951 45.519C14.1296 45.7327 15.8269 48.8308 15.8269 48.8308C18.6897 53.7449 23.3028 52.3564 25.1587 51.5016C25.4235 49.4182 26.2725 47.976 27.1739 47.1749C20.0683 46.4269 12.5924 43.6493 12.5924 31.2561C12.5924 27.7305 13.8641 24.846 15.8793 22.6027C15.5614 21.8016 14.4476 18.4891 16.1979 14.0556C16.1979 14.0556 18.9021 13.2008 24.9994 17.3675C27.6099 16.6612 30.302 16.3019 33.0063 16.2989C35.7105 16.2989 38.4671 16.6732 41.0126 17.3675C47.1106 13.2008 49.8148 14.0556 49.8148 14.0556C51.5651 18.4891 50.4506 21.8016 50.1327 22.6027C52.201 24.846 53.4203 27.7305 53.4203 31.2561C53.4203 43.6493 45.9444 46.3731 38.7857 47.1749C39.9526 48.1897 40.9595 50.1124 40.9595 53.1575C40.9595 57.4841 40.9071 60.9566 40.9071 62.0245C40.9071 62.8794 41.4905 63.8948 43.0809 63.5742C55.8065 59.3 64.9797 47.228 64.9797 32.9657C65.0322 15.1235 50.6631 0.701294 33.0063 0.701294Z" fill="#111C26"/>
</svg>
