<svg width="64" height="91" viewBox="0 0 64 91" fill="none" xmlns="http://www.w3.org/2000/svg">
<path d="M5.96252 0.00823975H10.0199V4.03029H13.7597V0.00823975H17.817V12.1802H13.7597V8.1229H10.0551V12.1802H5.96252M23.1797 4.06557H19.5987V0.00823975H30.8357V4.06557H27.2371V12.1802H23.1797M32.6174 0.00823975H36.8688L39.4796 4.2949L42.0904 0.00823975H46.3418V12.1802H42.2845V6.14716L39.4443 10.522L36.6042 6.14716V12.1802H32.6174M48.3528 0.00823975H52.4102V8.15819H58.161V12.1802H48.3528" fill="black"/>
<path d="M5.82139 83.0953L0 17.7546H64L58.1786 83.06L31.9471 90.3279" fill="#E44D26"/>
<path d="M32 84.7712V23.1174H58.161L53.1687 78.8616" fill="#F16529"/>
<path d="M11.8898 31.1087H32V39.1175H20.6748L21.4157 47.3204H32V55.3116H14.0772M14.43 59.3336H22.4741L23.0386 65.7372L32 68.1363V76.4979L15.559 71.9114" fill="#EBEBEB"/>
<path d="M52.0397 31.1087H31.9647V39.1175H51.2988M50.5755 47.3204H31.9647V55.3292H41.8434L40.9085 65.7372L31.9647 68.1363V76.4626L48.3705 71.9114" fill="white"/>
</svg>
