<svg width="64" height="91" viewBox="0 0 64 91" fill="none" xmlns="http://www.w3.org/2000/svg">
<path d="M5.96252 0.00823975H10.0199V4.03029H13.7597V0.00823975H17.817V12.1802H13.7597V8.1229H10.0551V12.1802H5.96252M23.1797 4.06557H19.5987V0.00823975H30.8357V4.06557H27.2371V12.1802H23.1797M32.6174 0.00823975H36.8688L39.4796 4.2949L42.0904 0.00823975H46.3418V12.1802H42.2845V6.14716L39.4443 10.522L36.6042 6.14716V12.1802H32.6174M48.3528 0.00823975H52.4102V8.15819H58.161V12.1802H48.3528" fill="#111C26"/>
<path fill-rule="evenodd" clip-rule="evenodd" d="M5.82139 83.0953L0 17.7546H64L58.1786 83.06L31.9471 90.3279L5.82139 83.0953ZM11.8897 31.1088H31.9647H32H52.0397L51.2988 39.1176H32H31.9647H20.6747L21.4157 47.3205H31.9647H32H50.5755L48.3705 71.9115L32 76.453V76.498L15.559 71.9115L14.43 59.3337H22.4741L23.0386 65.7373L31.9823 68.1317L40.9085 65.7373L41.8434 55.3293H31.9647V55.3117H14.0772L11.8897 31.1088Z" fill="#111C26"/>
</svg>
