<svg width="65" height="64" viewBox="0 0 65 64" fill="none" xmlns="http://www.w3.org/2000/svg">
<path d="M11.9713 0.968079H53.3047C59.5713 0.968079 64.638 6.03475 64.638 12.3014V52.0347C64.638 58.3014 59.5713 63.3681 53.3047 63.3681H11.9713C5.70467 63.3681 0.638 58.3014 0.638 52.0347V12.3014C0.638 6.03475 5.70467 0.968079 11.9713 0.968079Z" fill="#330000"/>
<path d="M31.5714 38.3015H21.6514L19.6247 44.5682C19.5714 44.8082 19.358 44.9682 19.118 44.9415H14.1047C13.8114 44.9415 13.7314 44.7815 13.8114 44.4615L22.398 19.7415C22.478 19.4748 22.558 19.1815 22.6647 18.8615C22.7714 18.3015 22.8247 17.7148 22.8247 17.1282C22.798 16.9948 22.9047 16.8615 23.038 16.8348H29.9447C30.158 16.8348 30.2647 16.9148 30.2914 17.0482L40.0247 44.5148C40.1047 44.8082 40.0247 44.9415 39.758 44.9415H34.1847C33.998 44.9682 33.8114 44.8348 33.758 44.6482L31.5714 38.3015ZM23.198 32.8882H29.9714C29.8114 32.3282 29.598 31.6615 29.358 30.9682C29.118 30.2482 28.878 29.4748 28.638 28.6748C28.3714 27.8482 28.1314 27.0482 27.8647 26.2215C27.598 25.3948 27.358 24.6215 27.1447 23.8482C26.9314 23.1015 26.7447 22.4082 26.558 21.7682H26.5047C26.2647 22.9148 25.9714 24.0615 25.598 25.2082C25.198 26.4882 24.798 27.8215 24.3714 29.1548C23.998 30.5148 23.598 31.7682 23.198 32.8882ZM45.9714 21.5015C45.0914 21.5282 44.2381 21.1815 43.5981 20.5682C42.9847 19.9015 42.6647 19.0215 42.6914 18.1148C42.6647 17.2082 43.0114 16.3548 43.6514 15.7415C44.2914 15.1282 45.1447 14.8082 46.0247 14.8082C47.0647 14.8082 47.8647 15.1282 48.4514 15.7415C49.038 16.3815 49.358 17.2348 49.3314 18.1148C49.358 19.0215 49.038 19.9015 48.398 20.5682C47.7847 21.2082 46.878 21.5548 45.9714 21.5015ZM42.9847 44.6482V24.1148C42.9847 23.8482 43.0914 23.7415 43.3314 23.7415H48.6114C48.8514 23.7415 48.958 23.8748 48.958 24.1148V44.6482C48.958 44.9415 48.8514 45.0748 48.6114 45.0748H43.3847C43.118 45.0748 42.9847 44.9148 42.9847 44.6482Z" fill="#FF9A00"/>
</svg>
