<svg width="65" height="64" viewBox="0 0 65 64" fill="none" xmlns="http://www.w3.org/2000/svg">
<path fill-rule="evenodd" clip-rule="evenodd" d="M52.9731 0.96814H11.6397C5.37306 0.96814 0.306396 6.03481 0.306396 12.3015V52.0348C0.306396 58.3015 5.37306 63.3681 11.6397 63.3681H52.9731C59.2397 63.3681 64.3064 58.3015 64.3064 52.0348V12.3015C64.3064 6.03481 59.2397 0.96814 52.9731 0.96814ZM21.3197 38.3015H31.2397L33.4264 44.6481C33.4797 44.8348 33.6664 44.9681 33.8531 44.9415H39.4264C39.6931 44.9415 39.7731 44.8081 39.6931 44.5148L29.9597 17.0481C29.9331 16.9148 29.8264 16.8348 29.6131 16.8348H22.7064C22.5731 16.8615 22.4664 16.9948 22.4931 17.1281C22.4931 17.7148 22.4397 18.3015 22.3331 18.8615C22.2575 19.0882 22.1953 19.3015 22.137 19.5015C22.113 19.5837 22.0897 19.6637 22.0664 19.7415L13.4797 44.4615C13.3997 44.7815 13.4797 44.9415 13.7731 44.9415H18.7864C19.0264 44.9681 19.2397 44.8081 19.2931 44.5681L21.3197 38.3015ZM29.6397 32.8881H22.8664C23.2664 31.7681 23.6664 30.5148 24.0397 29.1548C24.3039 28.3294 24.5578 27.5039 24.8078 26.6911C24.9617 26.191 25.114 25.6957 25.2664 25.2081C25.6397 24.0615 25.9331 22.9148 26.1731 21.7681H26.2264C26.3305 22.1249 26.4345 22.4982 26.5432 22.8882C26.6295 23.1977 26.7187 23.5177 26.8131 23.8481C27.0264 24.6215 27.2664 25.3948 27.5331 26.2215C27.6664 26.6348 27.7931 27.0415 27.9197 27.4481C28.0464 27.8548 28.1731 28.2615 28.3064 28.6748C28.5464 29.4748 28.7864 30.2481 29.0264 30.9681C29.2664 31.6615 29.4797 32.3281 29.6397 32.8881ZM43.2664 20.5681C43.9064 21.1815 44.7597 21.5281 45.6397 21.5015C46.5464 21.5548 47.4531 21.2081 48.0664 20.5681C48.7064 19.9015 49.0264 19.0215 48.9997 18.1148C49.0264 17.2348 48.7064 16.3815 48.1197 15.7415C47.5331 15.1281 46.7331 14.8081 45.6931 14.8081C44.8131 14.8081 43.9597 15.1281 43.3197 15.7415C42.6797 16.3548 42.3331 17.2081 42.3597 18.1148C42.3331 19.0215 42.6531 19.9015 43.2664 20.5681ZM42.6531 24.1148V44.6481C42.6531 44.9148 42.7864 45.0748 43.0531 45.0748H48.2797C48.5197 45.0748 48.6264 44.9415 48.6264 44.6481V24.1148C48.6264 23.8748 48.5197 23.7415 48.2797 23.7415H42.9997C42.7597 23.7415 42.6531 23.8481 42.6531 24.1148Z" fill="#111C26"/>
</svg>
