<svg width="131" height="33" viewBox="0 0 131 33" fill="none" xmlns="http://www.w3.org/2000/svg">
<path d="M56.2018 11.6883L56.2021 11.6871L55.3657 14.6513L56.2018 11.6883H56.2018Z" fill="#111C26"/>
<path d="M60.5034 18.1235L59.5818 18.118L60.5034 18.1235Z" fill="#111C26"/>
<path d="M60.2664 22.5501H60.2674L54.7454 22.5702L60.2666 22.5501H60.2664Z" fill="#111C26"/>
<path d="M61.4241 18.129L60.5021 18.1235L61.4241 18.129Z" fill="#111C26"/>
<path d="M60.7504 22.1738L61.7123 18.5055L60.7504 22.1746V22.1741V22.1738Z" fill="#111C26"/>
<path d="M81.0807 5.28058L79.2889 13.7041L81.0807 5.28058Z" fill="#111C26"/>
<path d="M76.4747 5.28059L75.1144 11.5733L76.4747 5.28009V5.28059Z" fill="#111C26"/>
<path d="M80.7738 4.90161H76.9423C76.7297 4.90161 76.5186 5.07218 76.4733 5.2799L75.113 11.5731L73.7527 17.8663C73.7077 18.074 73.4969 18.244 73.2843 18.244H70.9595H70.5723C67.8893 18.244 68.1996 16.3885 68.7491 13.8458C68.7546 13.8203 68.7601 13.7953 68.7656 13.7691L68.8259 13.4487C68.8295 13.428 68.8338 13.4072 68.8371 13.3884L68.9596 12.7359L69.0908 12.0366C69.1307 11.8259 69.1913 11.5176 69.2309 11.3239L69.8492 8.30257L70.4681 5.28122C70.5108 5.07288 70.3713 4.90171 70.1587 4.90171H66.2259C66.0133 4.90171 65.8028 5.07288 65.7593 5.28062L64.9137 9.29253L64.0682 13.3039C64.0675 13.3057 64.0672 13.3082 64.067 13.31L63.9884 13.6829C63.0143 18.1297 63.2726 22.3701 68.5662 22.5029C68.6527 22.5054 68.7197 22.506 68.7197 22.506H77.029C77.2416 22.506 77.4521 22.3354 77.4965 22.1271L79.2884 13.7043L81.0802 5.28074C81.1244 5.07241 80.9864 4.90183 80.7738 4.90183L80.7738 4.90161Z" fill="#111C26"/>
<path d="M96.059 18.288C96.2719 18.288 96.4111 18.4585 96.3684 18.6669L95.9962 20.4852" fill="#111C26"/>
<path d="M95.6248 22.3046L95.9967 20.485L95.6245 22.3052C95.6245 22.3047 95.6248 22.3047 95.6248 22.3047L95.6248 22.3046Z" fill="#111C26"/>
<path d="M95.1583 22.6874C95.1588 22.6874 95.1595 22.6869 95.16 22.6869C94.0324 22.696 90.6441 22.7216 88.0973 22.7216C91.1967 22.7216 95.158 22.6875 95.158 22.6875L95.1583 22.6874Z" fill="#111C26"/>
<path d="M85.8115 15.9458C85.8084 15.7466 86.0351 15.4036 86.248 15.4036L85.7695 15.3957C85.5539 17.5643 85.8115 15.9458 85.8115 15.9458H85.8115Z" fill="#111C26"/>
<path d="M88.4463 22.7208C88.422 22.7208 88.397 22.7208 88.3726 22.7213C88.397 22.7208 88.422 22.7208 88.4463 22.7208Z" fill="#111C26"/>
<path d="M96.059 18.288C96.2719 18.288 96.4111 18.4585 96.3684 18.6669L95.9962 20.4852L95.9356 20.7819" fill="#111C26"/>
<path d="M89.0327 22.7203C89.0023 22.7203 88.9724 22.7203 88.9426 22.7208C88.9724 22.7203 89.0023 22.7203 89.0327 22.7203Z" fill="#111C26"/>
<path d="M89.2647 22.7195C89.1871 22.7195 89.1094 22.72 89.0327 22.72C89.1094 22.72 89.1871 22.7195 89.2647 22.7195Z" fill="#111C26"/>
<path d="M90.2453 22.7166C89.9352 22.7178 89.6258 22.719 89.3209 22.7197C89.6258 22.7192 89.9356 22.7179 90.2453 22.7166Z" fill="#111C26"/>
<path d="M95.1607 22.6866H95.161C94.3346 22.6933 92.2941 22.7085 90.259 22.7164C92.293 22.7091 94.3341 22.6933 95.1607 22.6866Z" fill="#111C26"/>
<path d="M95.6248 22.3053L95.9364 20.7818L95.6245 22.3065C95.6245 22.306 95.6248 22.306 95.6248 22.3053L95.6248 22.3053Z" fill="#111C26"/>
<path d="M32.6128 15.9914L33.208 13.3531L32.5275 16.3689L31.8745 19.4409L32.4468 16.748C32.491 16.5396 32.5659 16.1991 32.6128 15.9914L32.6128 15.9914Z" fill="#111C26"/>
<path d="M39.7365 4.85718H35.5288C35.3159 4.85718 35.1036 5.02713 35.0561 5.23424L34.6571 6.99533L34.2581 8.75704C34.2112 8.96415 34.3467 9.1341 34.5596 9.1341H38.8001C39.0127 9.1341 39.224 8.96414 39.2697 8.75641L39.6553 6.99533L40.0409 5.23546V5.23497C40.0863 5.02724 39.9495 4.85728 39.7366 4.85728L39.7365 4.85718Z" fill="#111C26"/>
<path d="M38.8208 10.7155V10.715L37.5867 16.4246L38.8208 10.7155Z" fill="#111C26"/>
<path d="M26.5972 29.633C26.5972 29.633 28.7183 29.6605 30.0667 29.6605C29.0424 29.6605 27.3507 29.6416 26.5955 29.6324C26.5962 29.6324 26.5967 29.6329 26.5975 29.6329L26.5972 29.633Z" fill="#111C26"/>
<path d="M33.803 10.7147L33.2073 13.3531L33.803 10.7147Z" fill="#111C26"/>
<path d="M38.5164 10.3372H34.2754C34.0628 10.3372 33.8502 10.5072 33.8033 10.7149L33.2075 13.3533L32.6124 15.9916C32.5655 16.1993 32.4906 16.5399 32.4464 16.7482L31.8741 19.4412L31.3021 22.1342C31.2576 22.3419 31.1663 22.6775 31.098 22.8791C31.098 22.8791 30.3058 25.2366 28.9739 25.2098C28.9172 25.2085 28.8621 25.208 28.8076 25.2067C28.1622 25.1945 27.655 25.1853 27.655 25.1853H27.6541C27.4418 25.1822 27.2282 25.348 27.1786 25.5545L26.7388 27.4033L26.2996 29.2515C26.2502 29.458 26.3836 29.6286 26.595 29.6322C27.3504 29.6414 29.042 29.6602 30.0662 29.6602C33.3932 29.6602 35.1471 27.8169 36.2714 22.5125L37.5871 16.4246L38.8213 10.715C38.8661 10.5073 38.7287 10.3373 38.5161 10.3373L38.5164 10.3372Z" fill="#111C26"/>
<path d="M98.7612 22.5057C98.5486 22.5057 98.4106 22.3351 98.4554 22.1268L101.646 7.18347" fill="#111C26"/>
<path d="M103.195 22.1262L104.485 15.7482L103.195 22.1262Z" fill="#111C26"/>
<path d="M98.5017 22.3163C98.4758 22.2122 98.491 21.9569 98.5361 21.7486L100.05 14.6555L98.4551 22.1269C98.4103 22.3352 98.5483 22.5058 98.7609 22.5058H99.1483C98.9354 22.5058 98.5273 22.4205 98.5017 22.3163L98.5017 22.3163Z" fill="#111C26"/>
<path d="M102.943 22.4204C102.827 22.4673 102.558 22.5057 102.345 22.5057H102.733C102.945 22.5057 103.154 22.3351 103.196 22.1262L103.273 21.7473C103.231 21.9556 103.059 22.3735 102.943 22.4204Z" fill="#111C26"/>
<path d="M103.841 18.9372L104.411 16.1222C104.411 16.1239 104.41 16.1265 104.41 16.1277L103.841 18.9372H103.841Z" fill="#111C26"/>
<path d="M116.429 8.18445L116.605 8.91058C116.653 9.1183 116.519 9.28705 116.307 9.28764" fill="#111C26"/>
<path d="M103.272 21.7475L103.84 18.9374L103.272 21.7475Z" fill="#111C26"/>
<path d="M116.255 7.44061L116.428 8.18441L116.255 7.44061Z" fill="#111C26"/>
<path d="M104.41 16.1224C104.452 15.9141 104.523 15.5766 104.567 15.3701L105.175 12.5204L104.486 15.7484L104.41 16.1224V16.1224Z" fill="#111C26"/>
<path d="M101.698 6.9386C101.656 7.13962 101.601 7.39364 101.565 7.56178L100.051 14.6554L101.646 7.18352L101.698 6.93864V6.9386Z" fill="#111C26"/>
<path d="M116.604 8.91054L116.428 8.18441L116.254 7.44061L116.166 7.06414C115.822 5.72581 114.81 4.95339 112.615 4.95339L109.197 4.94975L106.048 4.94611H105.778H102.506C102.294 4.94611 102.083 5.11606 102.039 5.32439H102.039L101.882 6.06452L101.698 6.93866L101.646 7.18355L100.051 14.6555L98.5369 21.7486C98.4919 21.9569 98.4766 22.2122 98.5025 22.3163C98.5281 22.4205 98.9363 22.5058 99.1491 22.5058H102.345C102.558 22.5058 102.827 22.4674 102.943 22.4205C103.059 22.3736 103.23 21.9557 103.273 21.7474L103.841 18.9374L104.409 16.1278C104.41 16.1266 104.41 16.1242 104.41 16.1224L104.486 15.7483L105.175 12.5204L105.784 9.66946C105.829 9.46235 106.038 9.293 106.251 9.2924L116.306 9.28753C116.518 9.28703 116.653 9.11818 116.604 8.91047L116.604 8.91054Z" fill="#111C26"/>
<path d="M129.549 2.34492C129.336 2.34642 128.988 2.34774 128.775 2.34774H125.556C125.343 2.34774 125.071 2.4915 124.951 2.66724L117.834 13.0936C117.713 13.2697 117.576 13.2435 117.529 13.0364L117.006 10.7392C116.958 10.5315 116.745 10.3622 116.533 10.3622H111.957C111.744 10.3622 111.618 10.5291 111.676 10.7338L113.727 17.9157C113.785 18.1204 113.789 18.4567 113.737 18.6626L112.843 22.1385C112.79 22.345 112.921 22.5138 113.134 22.5138H117.656C117.868 22.5138 118.086 22.345 118.139 22.1385L119.033 18.6626C119.085 18.4567 119.233 18.1485 119.362 17.9785L130.915 2.64369C131.044 2.47373 130.974 2.33544 130.762 2.33699L129.549 2.3449L129.549 2.34492Z" fill="#111C26"/>
<path d="M93.1996 11.3398L93.1993 11.3355C93.1725 11.5664 92.9596 11.7357 92.747 11.7357H86.9463C86.7459 11.7357 86.6439 11.5993 86.6734 11.4311C86.6752 11.4263 86.6759 11.422 86.6789 11.4177C86.6789 11.4177 86.6769 11.4182 86.6753 11.4195C86.6765 11.4128 86.6765 11.4067 86.6784 11.4C86.6784 11.4 86.6894 11.3592 86.7049 11.3013C87.2589 9.82837 88.3874 8.86163 90.5082 8.86163C92.8958 8.86163 93.3619 10.0282 93.1997 11.3397L93.1996 11.3398ZM91.4979 4.64435C84.0522 4.64435 82.2879 9.16377 81.298 13.7251C80.3081 18.3743 80.3934 22.7213 88.098 22.7213H88.3715C88.3959 22.7208 88.4209 22.7208 88.4452 22.7208H88.6609H88.7401H88.9423C88.9722 22.7203 89.002 22.7203 89.0325 22.7203C89.1092 22.7203 89.1869 22.7198 89.2646 22.7198H89.3191C89.624 22.7193 89.9334 22.7178 90.2435 22.7167H90.259C92.2939 22.7088 94.3346 22.6935 95.1612 22.6868C95.3726 22.6837 95.5794 22.5132 95.6229 22.3067L95.9348 20.782L95.9954 20.4853L96.3676 18.667C96.4103 18.4586 96.2711 18.2881 96.0582 18.2881H89.1315C86.3766 18.2881 85.5585 17.5559 85.8599 15.4037H96.9325L96.9315 15.405C96.9343 15.405 96.9367 15.4037 96.9391 15.4037C97.1151 15.4006 97.2778 15.2794 97.3424 15.118C97.3546 15.0869 97.3649 15.0547 97.3692 15.0212L97.3679 15.0224C99.012 8.82102 98.5405 4.64467 91.4974 4.64467L91.4979 4.64435Z" fill="#111C26"/>
<path d="M56.3067 11.3161L56.2019 11.687C56.2019 11.6883 56.2017 11.6883 56.2017 11.6883L55.3656 14.6513L54.5298 17.6137C54.472 17.8184 54.2508 17.9859 54.0376 17.9859H49.6123C46.2556 17.9859 45.4382 15.3605 46.2556 11.4881C47.0728 7.52734 48.6752 5.06515 51.9789 4.81589C56.4936 4.47535 57.3968 7.65085 56.3067 11.3162L56.3067 11.3161ZM59.3415 17.758C59.3415 17.758 61.4279 12.6921 61.9018 9.76585C62.548 5.84875 60.5868 0.168091 53.0116 0.168091C45.4796 0.168091 42.209 5.59175 40.9609 11.4877C39.7131 17.4264 41.348 22.6347 48.8373 22.592L54.7455 22.5701L60.2675 22.55C60.4801 22.5483 60.6975 22.3794 60.7517 22.1741L61.7136 18.5051C61.7672 18.2992 61.6372 18.1298 61.4246 18.1286L60.5026 18.1231L59.5809 18.1176C59.4 18.1164 59.2965 17.9994 59.3184 17.8441C59.3224 17.8161 59.3288 17.7874 59.341 17.7576L59.3415 17.758Z" fill="#111C26"/>
<path d="M96.6279 14.3674C96.6279 14.5075 96.5143 14.6214 96.3738 14.6214C96.2337 14.6214 96.1198 14.5075 96.1198 14.3674C96.1198 14.2273 96.2337 14.114 96.3738 14.114C96.5143 14.114 96.6279 14.2273 96.6279 14.3674Z" fill="#111C26"/>
<path d="M1.82765 7.78049C-0.25204 10.7697 0.00685424 14.6586 1.59556 17.8346C1.63333 17.9107 1.67292 17.9857 1.71191 18.0606C1.73689 18.1081 1.76033 18.1568 1.78622 18.2038C1.80085 18.2318 1.81729 18.2592 1.83252 18.286C1.85962 18.3366 1.88734 18.3847 1.91536 18.434C1.96471 18.5211 2.01527 18.6076 2.06705 18.6941C2.09568 18.7416 2.124 18.7892 2.15355 18.8367C2.21081 18.9293 2.2696 19.0206 2.3296 19.112C2.35458 19.151 2.37894 19.19 2.40452 19.2278C2.48737 19.3514 2.57204 19.4745 2.65945 19.5957C2.66162 19.5988 2.664 19.6024 2.66675 19.6054C2.68047 19.6249 2.69569 19.6438 2.70969 19.6633C2.78523 19.7675 2.8632 19.8704 2.94209 19.9721C2.97103 20.0093 3.00026 20.0464 3.0295 20.0836C3.09986 20.1719 3.17144 20.2597 3.24423 20.3474C3.27134 20.3803 3.29875 20.4132 3.32616 20.4454C3.42394 20.5606 3.52353 20.6751 3.62525 20.7872C3.62713 20.7889 3.62953 20.7914 3.63134 20.7933C3.63561 20.7981 3.63926 20.8012 3.64291 20.806C3.7422 20.9145 3.84393 21.0205 3.94689 21.1265C3.97886 21.1594 4.01146 21.1923 4.04435 21.2245C4.12415 21.3049 4.20517 21.3841 4.2871 21.4627C4.3203 21.4944 4.3532 21.5267 4.3864 21.5571C4.49574 21.6601 4.6063 21.7612 4.719 21.8599C4.72087 21.8616 4.72233 21.863 4.72417 21.8642C4.74336 21.8812 4.76316 21.8971 4.78205 21.9135C4.88134 21.9994 4.98246 22.0847 5.08418 22.1688C5.1256 22.2023 5.16764 22.2352 5.20936 22.2687C5.29251 22.3351 5.37658 22.4008 5.46125 22.4654C5.50602 22.4995 5.55079 22.5336 5.59587 22.5678C5.68938 22.6366 5.78349 22.7042 5.87852 22.7706C5.91324 22.7956 5.94675 22.82 5.98147 22.8437C5.9912 22.8504 6.00006 22.8571 6.00979 22.8638C6.09995 22.926 6.19223 22.9856 6.28423 23.0454C6.32382 23.0715 6.36311 23.099 6.40301 23.1245C6.54434 23.2141 6.68781 23.3024 6.83278 23.3877C6.87206 23.4103 6.91197 23.4322 6.95156 23.4547C7.05816 23.5162 7.16538 23.5765 7.2741 23.6356C7.33289 23.6673 7.3932 23.6972 7.45259 23.7276C7.52934 23.7678 7.60549 23.8086 7.68346 23.8476C7.70111 23.8562 7.7194 23.8647 7.73676 23.8732C7.76814 23.8884 7.79981 23.903 7.83118 23.9189C7.9521 23.9768 8.07393 24.0334 8.19699 24.0882C8.22319 24.0998 8.24847 24.1114 8.27436 24.123C8.41538 24.1845 8.5576 24.2436 8.70107 24.3002C8.73549 24.3142 8.77021 24.3276 8.80494 24.341C8.93773 24.3922 9.07236 24.4428 9.2076 24.4903C9.22466 24.4964 9.24111 24.5019 9.25816 24.5079C9.40649 24.5597 9.55635 24.6078 9.70711 24.6547C9.74305 24.6651 9.77929 24.6767 9.81554 24.687C9.96905 24.7333 10.1207 24.7887 10.2791 24.818C20.337 26.6522 23.2585 18.7738 23.2585 18.7738C20.8048 21.9705 16.4493 22.8136 12.3226 21.875C12.1664 21.8396 12.0147 21.7909 11.8621 21.7458C11.8234 21.7343 11.7853 21.7227 11.7473 21.7111C11.5983 21.6654 11.4506 21.6173 11.3038 21.5667C11.2837 21.5595 11.2633 21.5521 11.2429 21.5448C11.1113 21.4985 10.9812 21.4498 10.8518 21.3998C10.8152 21.3852 10.7787 21.3712 10.7422 21.3566C10.6002 21.3005 10.4592 21.2421 10.32 21.1811C10.2914 21.1689 10.264 21.1562 10.2356 21.144C10.1159 21.0898 9.99745 21.0349 9.87957 20.9783C9.84546 20.9618 9.81135 20.946 9.77663 20.9289C9.68406 20.8838 9.59249 20.8356 9.50116 20.7887C9.44003 20.7565 9.3779 20.7261 9.31727 20.6924C9.20574 20.6328 9.0962 20.5706 8.98717 20.5073C8.95024 20.4866 8.91281 20.4666 8.87564 20.4451C8.73067 20.3598 8.58745 20.2715 8.44573 20.1819C8.40655 20.157 8.36838 20.1303 8.3297 20.1046C8.2269 20.0382 8.1246 19.9706 8.0238 19.9012C7.99036 19.8785 7.95818 19.8543 7.92524 19.8318C7.82793 19.763 7.73162 19.6934 7.63606 19.6227C7.59264 19.5906 7.54997 19.5581 7.50781 19.5259C7.42023 19.4588 7.33315 19.3912 7.24682 19.3218C7.20783 19.2908 7.16884 19.2597 7.13047 19.2286C7.02082 19.1385 6.91239 19.0477 6.80548 18.9545C6.79422 18.9448 6.78202 18.935 6.76984 18.9247C6.6541 18.8229 6.54049 18.7188 6.42811 18.614C6.39552 18.5829 6.36384 18.5525 6.33186 18.5214C6.24871 18.4422 6.16678 18.3624 6.08637 18.2808C6.05408 18.2485 6.02179 18.2168 5.99012 18.1845C5.88778 18.0798 5.78727 17.9738 5.68888 17.866C5.68402 17.8605 5.67884 17.8556 5.67397 17.8501C5.5698 17.7362 5.46808 17.6199 5.36847 17.5023C5.34137 17.47 5.31517 17.4389 5.28836 17.4073C5.21405 17.3177 5.14034 17.227 5.06846 17.1356C5.04151 17.1026 5.01456 17.069 4.98786 17.035C4.90128 16.9227 4.8167 16.8107 4.73386 16.6969C2.44276 13.5718 1.61969 9.26146 3.45087 5.72162" fill="#0868AC"/>
<path d="M8.28334 5.26215C6.77933 7.4265 6.86094 10.3238 8.03419 12.6128C8.23095 12.9966 8.45208 13.3688 8.69939 13.7233C8.92478 14.0461 9.17454 14.4305 9.47363 14.69C9.58206 14.8094 9.69537 14.9258 9.8111 15.0403C9.84032 15.0702 9.87018 15.0988 9.90003 15.128C10.0124 15.2371 10.1266 15.3443 10.2448 15.4484C10.2497 15.4521 10.254 15.457 10.2588 15.4606C10.2601 15.4619 10.2613 15.4624 10.2622 15.4638C10.3928 15.5783 10.5277 15.6886 10.6648 15.797C10.6953 15.8201 10.7254 15.8445 10.7562 15.8682C10.8936 15.9736 11.0337 16.0772 11.1774 16.1759C11.1817 16.179 11.1853 16.182 11.1896 16.185C11.253 16.2289 11.3175 16.2697 11.3818 16.3117C11.4126 16.3318 11.4418 16.3531 11.4729 16.372C11.5755 16.4378 11.6794 16.5018 11.7851 16.5633C11.8 16.5724 11.8146 16.5804 11.8292 16.5889C11.9203 16.6412 12.0126 16.693 12.1052 16.743C12.1375 16.7612 12.1704 16.7771 12.2033 16.7941C12.2672 16.8276 12.3312 16.8618 12.3964 16.894C12.4061 16.8989 12.4162 16.9032 12.4256 16.9075C12.5581 16.9727 12.6918 17.0354 12.8283 17.0951C12.8575 17.1079 12.8876 17.1194 12.9172 17.1316C13.0262 17.1779 13.1365 17.223 13.2473 17.2657C13.2943 17.2833 13.3418 17.3004 13.3887 17.3174C13.4892 17.3546 13.59 17.3887 13.6917 17.4228C13.7377 17.4374 13.7828 17.4527 13.8288 17.4667C13.9735 17.5118 14.1163 17.5684 14.2671 17.5934C22.0327 18.8799 23.8254 12.9011 23.8254 12.9011C22.2093 15.2287 19.0797 16.3391 15.74 15.4723C15.5916 15.4333 15.4454 15.3907 15.3001 15.345C15.2557 15.3316 15.2121 15.317 15.168 15.3023C15.0647 15.2688 14.9621 15.2335 14.8603 15.1963C14.8137 15.1793 14.7671 15.1622 14.7214 15.1446C14.61 15.1019 14.4997 15.0574 14.3904 15.0111C14.3605 14.9983 14.3304 14.9868 14.3011 14.9734C14.1641 14.9137 14.0291 14.8509 13.896 14.7851C13.8275 14.7516 13.7602 14.7163 13.6929 14.6816C13.6539 14.6615 13.6146 14.6414 13.5756 14.6213C13.4891 14.5744 13.4032 14.5256 13.3185 14.4763C13.2984 14.4647 13.2774 14.4537 13.257 14.4416C13.1519 14.3801 13.0484 14.3167 12.9457 14.2515C12.914 14.2314 12.8836 14.2095 12.8519 14.1888C12.7843 14.1449 12.7167 14.1004 12.6503 14.0554C12.5071 13.9567 12.3679 13.8531 12.2306 13.7483C12.1989 13.7234 12.1672 13.699 12.1362 13.674C10.6743 12.5198 9.51552 10.9426 8.9646 9.1541C8.38723 7.29923 8.51173 5.21704 9.51203 3.52734" fill="#0868AC"/>
<path d="M13.7131 3.38057C12.8265 4.6854 12.7394 6.30586 13.3546 7.74705C14.0034 9.27666 15.3329 10.4767 16.8845 11.0456C16.9485 11.0694 17.0124 11.0907 17.0773 11.1126C17.1056 11.1211 17.1336 11.1309 17.1623 11.1394C17.2537 11.168 17.3444 11.2015 17.4388 11.2192C21.7267 12.0477 22.8897 9.0189 23.1993 8.57312C22.1805 10.04 20.4684 10.3921 18.3678 9.88221C18.2019 9.84179 18.0195 9.78191 17.8595 9.72527C17.6544 9.65216 17.4523 9.56882 17.2559 9.47451C16.8829 9.29536 16.5274 9.07778 16.1978 8.82877C14.3179 7.40256 13.1502 4.68162 14.3768 2.4657" fill="#0868AC"/>
<path d="M62.0055 28.7947L60.7695 31.6097H59.405L59.5168 29.0519L58.5122 31.6097H57.191L57.1562 28.7947L57.3021 28.0996H58.2378L58.0575 30.8799L59.0961 28.0996H60.4007L60.3062 30.9146L61.3363 28.0996H62.1514L62.0055 28.7947H62.0055Z" fill="#0868AC"/>
<path d="M64.1588 29.628C64.2791 29.0786 64.2447 28.9756 63.9614 28.9756H63.5322L63.2575 30.2634L62.8369 31.6102H62.0389L62.691 28.5552L62.7857 28.1087H63.5152L63.6096 28.3146C63.6096 28.3146 64.0302 28.066 64.4417 28.066C65.3174 28.066 65.2488 28.7264 65.0597 29.6279H64.1588L64.1588 29.628Z" fill="#0868AC"/>
<path d="M66.7512 27.6619C66.3998 27.6619 66.1765 27.5589 66.2621 27.1301C66.3565 26.7006 66.6313 26.5977 66.9742 26.5977C67.3181 26.5977 67.5496 26.7006 67.4551 27.1301C67.3692 27.5504 67.0948 27.6619 66.7513 27.6619H66.7512ZM66.3739 31.6099H65.5838L65.7385 30.2369L66.0133 28.9668L65.4641 28.8462L65.6185 28.0999H67.1201L66.3739 31.6098L66.3739 31.6099Z" fill="#0868AC"/>
<path d="M69.7978 28.8446L68.8109 28.9652L68.5274 30.3041C68.45 30.6733 68.45 30.7762 68.7765 30.7762H69.4371L69.2998 31.4798C69.2998 31.4798 68.6994 31.6601 68.4415 31.6601C67.4288 31.6601 67.4373 31.1021 67.6179 30.2694L67.8926 28.9567L67.3431 28.8367L67.5061 28.0898H68.0814L68.4077 27.2053H69.1886L68.9995 28.0898H69.9607L69.7978 28.8446L69.7978 28.8446Z" fill="#0868AC"/>
<path d="M71.8487 28.8895C71.3855 28.8895 71.1449 29.1301 71.0508 29.5589L72.3723 29.4475C72.4323 29.1557 72.3723 28.8895 71.8487 28.8895V28.8895ZM70.9222 30.1937C70.8616 30.6231 71.0248 30.7687 71.574 30.7687H72.9556L72.8185 31.4212C72.8185 31.4212 71.9861 31.6526 71.3681 31.6526C69.8318 31.6526 69.8144 30.7864 70.0121 29.8593C70.2095 28.9492 70.5612 28.0488 72.0458 28.0488C73.4794 28.0488 73.5483 28.9151 73.1962 30.1937H70.9222L70.9222 30.1937Z" fill="#0868AC"/>
<path d="M76.345 31.6092H75.5558L75.7103 30.2361L76.2683 27.627L75.7185 27.4984L75.8817 26.7516H77.3839L76.345 31.6091V31.6092Z" fill="#0868AC"/>
<path d="M79.1969 28.8895C78.7331 28.8895 78.4931 29.1301 78.3983 29.5589L79.7202 29.4475C79.7799 29.1557 79.7202 28.8895 79.1969 28.8895L79.1969 28.8895ZM78.2698 30.1937C78.2098 30.6231 78.373 30.7687 78.9219 30.7687H80.3038L80.1664 31.4212C80.1664 31.4212 79.3337 31.6526 78.7157 31.6526C77.1794 31.6526 77.1626 30.7864 77.36 29.8593C77.5576 28.9492 77.9094 28.0488 79.394 28.0488C80.8273 28.0488 80.8959 28.9151 80.5444 30.1937H78.2698L78.2698 30.1937Z" fill="#0868AC"/>
<path d="M84.1647 28.9319C84.1647 28.9319 83.1605 28.9404 82.8861 28.9404C82.3022 28.9404 82.2422 29.1201 82.1996 29.309L82.1648 29.4807L84.0188 29.6184C84.0188 29.6184 84.0273 30.2105 83.95 30.545C83.8385 31.1029 83.2634 31.6689 82.2252 31.6689C81.7098 31.6689 80.8774 31.4721 80.8774 31.4721L81.0233 30.7941H82.3022C82.8687 30.7941 82.9461 30.6394 82.9808 30.4853L83.0234 30.2623L81.2039 30.1246C81.2039 30.1246 81.1353 29.6696 81.2294 29.2152C81.3671 28.5969 81.933 28.0651 82.9716 28.0651C83.4867 28.0651 84.3191 28.2533 84.3191 28.2533L84.1647 28.9319L84.1647 28.9319Z" fill="#0868AC"/>
<path d="M87.6155 28.9319C87.6155 28.9319 86.6116 28.9404 86.3369 28.9404C85.7533 28.9404 85.6933 29.1201 85.6503 29.309L85.6156 29.4807L87.4699 29.6184C87.4699 29.6184 87.4784 30.2105 87.4011 30.545C87.2896 31.1029 86.7145 31.6689 85.6759 31.6689C85.1612 31.6689 84.3284 31.4721 84.3284 31.4721L84.4743 30.7941H85.7532C86.3195 30.7941 86.3968 30.6394 86.4315 30.4853L86.4742 30.2623L84.6546 30.1246C84.6546 30.1246 84.5861 29.6696 84.6802 29.2152C84.8179 28.5969 85.3838 28.0651 86.4227 28.0651C86.9374 28.0651 87.7699 28.2533 87.7699 28.2533L87.6154 28.9319L87.6155 28.9319Z" fill="#0868AC"/>
<path d="M88.6959 32.1681H88.0097L88.0352 31.6528C87.7861 31.6363 87.6575 31.456 87.7176 31.1551C87.812 30.7262 88.0782 30.6233 88.43 30.6233C88.7732 30.6233 89.0044 30.7262 88.9106 31.1551L88.6959 32.1681V32.1681Z" fill="#0868AC"/>
<path d="M93.2869 28.9669C92.7722 28.9669 92.5922 29.2757 92.4718 29.8422C92.3515 30.4088 92.386 30.7432 92.9007 30.7432H93.6131L94.0081 28.9669H93.2869ZM94.4629 31.155L94.3682 31.61L93.6478 31.6015L93.5446 31.3785C93.5446 31.3785 92.9092 31.6527 92.4807 31.6527C91.3817 31.6527 91.3303 30.7517 91.5276 29.8422C91.725 28.9151 92.1542 28.0397 93.2442 28.0397C93.6393 28.0397 94.1711 28.2371 94.1711 28.2371L94.6088 26.7526H95.3986L94.4629 31.155L94.4629 31.155Z" fill="#0868AC"/>
<path d="M97.3041 28.9319C96.6349 28.9319 96.4198 29.309 96.2998 29.8584C96.1884 30.4164 96.2401 30.7941 96.9005 30.7941C97.5873 30.7941 97.7935 30.425 97.9132 29.8584C98.0338 29.326 97.9991 28.9319 97.304 28.9319H97.3041ZM96.7208 31.6611C95.3045 31.6611 95.1927 30.7772 95.3816 29.8586C95.5792 28.9406 96.0769 28.0652 97.4932 28.0652C98.9004 28.0652 99.0295 28.9406 98.8315 29.8586C98.6345 30.7942 98.1365 31.6611 96.7208 31.6611Z" fill="#0868AC"/>
<path d="M104.754 31.6092L104.909 30.2532L104.986 29.867C105.098 29.3523 105.167 28.9746 104.626 28.9746H104.205C104.223 29.2408 104.171 29.5411 104.102 29.8585L103.734 31.6092H102.935L103.09 30.2532L103.167 29.867C103.278 29.3523 103.347 28.9746 102.807 28.9746H102.463L101.897 31.6092H100.978L101.725 28.0993H102.446L102.557 28.3137C102.557 28.3137 103.047 28.056 103.441 28.056C103.742 28.056 103.965 28.1937 104.042 28.3649C104.214 28.2705 104.703 28.056 105.055 28.056C106.153 28.056 106.119 28.9485 105.922 29.8585L105.553 31.6093H104.754L104.754 31.6092Z" fill="#0868AC"/>
<path d="M108.402 28.9319C107.733 28.9319 107.518 29.309 107.398 29.8584C107.287 30.4164 107.338 30.7941 107.999 30.7941C108.685 30.7941 108.892 30.425 109.012 29.8584C109.132 29.326 109.097 28.9319 108.402 28.9319ZM107.819 31.6611C106.402 31.6611 106.291 30.7772 106.48 29.8586C106.677 28.9406 107.175 28.0652 108.591 28.0652C109.999 28.0652 110.128 28.9406 109.93 29.8586C109.733 30.7942 109.235 31.6611 107.819 31.6611Z" fill="#0868AC"/>
<path d="M112.315 29.628C112.435 29.0786 112.401 28.9756 112.118 28.9756H111.688L111.413 30.2634L110.993 31.6102H110.195L110.847 28.5552L110.942 28.1087H111.671L111.765 28.3146C111.765 28.3146 112.186 28.066 112.598 28.066C113.473 28.066 113.404 28.7264 113.216 29.6279H112.315L112.315 29.628Z" fill="#0868AC"/>
<path d="M115.389 28.8895C114.926 28.8895 114.685 29.1301 114.591 29.5589L115.912 29.4475C115.973 29.1557 115.912 28.8895 115.389 28.8895V28.8895ZM114.462 30.1937C114.402 30.6231 114.565 30.7687 115.114 30.7687H116.496L116.359 31.4212C116.359 31.4212 115.526 31.6526 114.908 31.6526C113.372 31.6526 113.355 30.7864 113.552 29.8593C113.749 28.9492 114.102 28.0488 115.586 28.0488C117.019 28.0488 117.088 28.9151 116.736 30.1937H114.462V30.1937Z" fill="#0868AC"/>
<path d="M117.507 31.6616C117.146 31.6616 116.924 31.5586 117.018 31.1383C117.104 30.7082 117.37 30.6059 117.731 30.6059C118.065 30.6059 118.297 30.7082 118.211 31.1383C118.116 31.5501 117.842 31.6616 117.507 31.6616Z" fill="#0868AC"/>
</svg>
