<svg width="64" height="65" viewBox="0 0 64 65" fill="none" xmlns="http://www.w3.org/2000/svg">
<path fill-rule="evenodd" clip-rule="evenodd" d="M0 0.168091H64V64.1681H0V0.168091ZM48.9244 53.8204C45.9581 53.8204 44.2809 52.2732 42.9917 50.1683L38.1044 53.0077C39.87 56.4962 43.4783 59.1578 49.0636 59.1578C54.7759 59.1578 59.0293 56.1915 59.0293 50.7769C59.0293 45.7544 56.1443 43.5205 51.0344 41.3292L49.5309 40.6852C46.9506 39.5677 45.8331 38.8373 45.8331 37.0331C45.8331 35.5733 46.9496 34.4558 48.7111 34.4558C50.4381 34.4558 51.5505 35.1842 52.5816 37.0331L57.2648 34.0261C55.2838 30.5417 52.5349 29.2109 48.7111 29.2109C43.3402 29.2109 39.9035 32.6445 39.9035 37.155C39.9035 42.0515 42.7865 44.3677 47.1263 46.2166L48.6298 46.8617C51.3727 48.0614 53.0083 48.7918 53.0083 50.8541C53.0083 52.5749 51.4164 53.8204 48.9244 53.8204ZM25.6173 53.7828C23.551 53.7828 22.6916 52.3657 21.7468 50.6895L16.8513 53.6533C18.2695 56.6547 21.058 59.1466 25.8733 59.1466C31.2025 59.1466 34.8536 56.3123 34.8536 50.085V29.5542H28.8396V50.0038C28.8396 53.0097 27.5931 53.7828 25.6173 53.7828Z" fill="#111C26"/>
</svg>
