<svg width="64" height="65" viewBox="0 0 64 65" fill="none" xmlns="http://www.w3.org/2000/svg">
<path d="M64 0.168091H0V64.1681H64V0.168091Z" fill="#F7DF1E"/>
<path d="M42.9918 50.1683C44.2809 52.2732 45.9581 53.8204 48.9245 53.8204C51.4164 53.8204 53.0083 52.5749 53.0083 50.854C53.0083 48.7918 51.3727 48.0614 48.6299 46.8617L47.1264 46.2166C42.7866 44.3677 39.9035 42.0515 39.9035 37.155C39.9035 32.6445 43.3402 29.2109 48.7111 29.2109C52.5349 29.2109 55.2838 30.5417 57.2648 34.0261L52.5816 37.0331C51.5505 35.1842 50.4381 34.4558 48.7111 34.4558C46.9496 34.4558 45.8332 35.5733 45.8332 37.0331C45.8332 38.8373 46.9506 39.5677 49.5309 40.6852L51.0344 41.3292C56.1443 43.5205 59.0294 45.7544 59.0294 50.7768C59.0294 56.1914 54.7759 59.1578 49.0636 59.1578C43.4784 59.1578 39.87 56.4962 38.1044 53.0077L42.9918 50.1683ZM21.7468 50.6895C22.6916 52.3657 23.551 53.7828 25.6173 53.7828C27.5932 53.7828 28.8396 53.0097 28.8396 50.0038V29.5542H34.8536V50.085C34.8536 56.3123 31.2026 59.1466 25.8733 59.1466C21.058 59.1466 18.2695 56.6547 16.8513 53.6533L21.7468 50.6895Z" fill="black"/>
</svg>
