<svg width="32" height="33" viewBox="0 0 32 33" fill="none" xmlns="http://www.w3.org/2000/svg">
<path fill-rule="evenodd" clip-rule="evenodd" d="M0 2.30693C0 1.03325 1.0587 0.000102997 2.36474 0.000102997H29.6353C30.9412 0.000102997 32 1.03325 32 2.30693V29.8963C32 31.1704 30.9412 32.2031 29.6353 32.2031H2.36474C1.0587 32.2031 0 31.1704 0 29.8963V2.30693ZM9.70021 26.9573V12.4158H4.86689V26.9573H9.70021ZM7.28353 10.4304C8.969 10.4304 10.0181 9.31379 10.0181 7.91834C9.98666 6.49147 8.96901 5.40583 7.3155 5.40583C5.66217 5.40583 4.58118 6.49147 4.58118 7.91834C4.58118 9.31379 5.63002 10.4304 7.25203 10.4304H7.28344H7.28353ZM17.2079 26.9573H12.3748C12.3748 26.9573 12.4382 13.7803 12.3748 12.4158H17.208V14.4746C17.8504 13.4838 18.9999 12.0746 21.5638 12.0746C24.7438 12.0746 27.1283 14.1529 27.1283 18.6194V26.9573H22.2954V19.1779C22.2954 17.2231 21.5958 15.8896 19.8468 15.8896C18.5116 15.8896 17.7163 16.7889 17.3669 17.6573C17.2393 17.9679 17.2079 18.4021 17.2079 18.8367V26.9573ZM17.208 14.4746V14.5247H17.1758C17.1864 14.5081 17.1971 14.4914 17.208 14.4746Z" fill="white"/>
</svg>
