<svg width="112" height="48" viewBox="0 0 112 48" fill="none" xmlns="http://www.w3.org/2000/svg">
<g clip-path="url(#clip0_9_136)">
<path d="M59.5342 18.9785C60.0785 19.0054 60.543 18.5361 60.6208 18.0111C60.6416 17.9341 60.6587 17.8534 60.6682 17.7707C60.9166 15.6917 60.873 13.6049 60.5848 11.5317C60.4444 10.5162 60.2396 9.51231 59.9571 8.52762C59.6897 7.59485 59.3996 6.47745 58.8496 5.67354C58.2997 4.87348 57.3231 4.16573 56.3807 3.94071C55.2429 3.67146 54.126 4.11188 53.2594 4.84848C51.7878 6.10242 50.9383 8.14874 50.5022 9.99889C50.2481 11.0759 50.1115 12.1875 50.0433 13.2915C49.9655 14.5358 50.0414 15.7782 50.0091 17.0225C50.0072 17.1014 50.0148 17.1745 50.0243 17.2456C50.0167 17.2956 50.0091 17.3456 50.0091 17.3956C50.0091 17.4591 50.0186 17.5206 50.0281 17.5803C50.0186 17.6418 50.0091 17.7014 50.0091 17.7687C50.0091 20.8844 49.9636 24.0019 50.0907 27.1156C50.2158 30.2082 50.4737 33.2911 50.8245 36.3645C50.9554 37.5088 51.0104 38.7185 51.3289 39.8301C51.6873 41.0764 52.4288 42.4419 53.4528 43.2342C54.7233 44.2189 56.6367 44.4343 57.9811 43.467C59.2156 42.5784 59.8547 41.0533 60.1903 39.6013C60.9185 36.4452 60.4843 33.1854 60.7554 29.987C60.8066 29.3851 60.2112 28.8677 59.6518 28.8677C59.0127 28.8677 58.5993 29.3812 58.5481 29.987C58.3301 32.5584 58.5728 35.149 58.2864 37.7184C58.1613 38.8339 57.875 40.0705 57.2947 41.0033C56.7125 41.938 55.6582 42.1322 54.7916 41.4745C54.3459 41.1379 54.0729 40.6129 53.8264 40.1051C53.7638 39.9763 53.7031 39.8436 53.6424 39.7128C53.6026 39.6263 53.5647 39.5378 53.5249 39.4493C53.5211 39.4397 53.5135 39.4186 53.504 39.3955C53.4945 39.3686 53.4869 39.3416 53.4831 39.3301C53.4585 39.2397 53.43 39.1493 53.4092 39.057C53.3656 38.8762 53.3314 38.6935 53.3011 38.5108C53.2821 38.3935 53.2632 38.2762 53.2461 38.1608C53.2385 38.1069 53.2309 38.055 53.2233 38.0011C53.2347 38.0877 53.229 38.0492 53.2233 38.0011C53.2214 37.9819 53.2177 37.9627 53.2158 37.9473C53.1304 37.278 53.0565 36.6068 52.9806 35.9356C52.6564 33.1161 52.4326 30.2851 52.3093 27.4484C52.1804 24.4924 52.2069 21.5325 52.2126 18.5746C54.6531 18.7054 57.0937 18.8534 59.5342 18.9765V18.9785ZM52.4117 11.7086C52.6658 10.1124 53.138 8.51415 54.1013 7.20251C54.4559 6.71978 54.9547 6.16589 55.5747 6.1005C56.0886 6.04665 56.7789 6.55246 57.0178 6.91403C57.4445 7.55446 57.6436 8.46607 57.8503 9.20075C58.093 10.0547 58.277 10.9259 58.4116 11.8048C58.6543 13.4126 58.6885 15.0608 58.5652 16.686C56.4508 16.5744 54.3365 16.4513 52.2221 16.3379C52.2316 14.7897 52.1652 13.2453 52.4098 11.7067L52.4117 11.7086Z" fill="#111C26"/>
<path d="M70.6693 36.7626C69.3191 36.878 67.9614 36.8818 66.6112 36.7626C66.3173 36.7356 66.0252 36.7068 65.7332 36.6664C65.6649 36.6568 65.2591 36.5529 65.0486 36.526C65.0297 36.3337 65.0373 35.9913 65.0297 35.7606C64.969 33.8393 65.0771 31.9141 65.0771 29.9928C65.0771 24.6981 64.9425 19.4035 64.8192 14.1108L64.5973 4.60999C64.5632 3.17334 62.3578 3.16757 62.3919 4.60999C62.5304 10.5066 62.7162 16.4071 62.7977 22.3056C62.8338 24.8962 62.8698 27.4907 62.8698 30.0813C62.8698 32.1987 62.7427 34.3181 62.8508 36.4337C62.8888 37.1838 63.086 38.0146 63.7667 38.4396C64.3849 38.8243 65.2079 38.8435 65.9058 38.9281C67.4854 39.1185 69.0802 39.1378 70.6655 39.0031C71.259 38.9531 71.7691 38.5262 71.7691 37.8838C71.7691 37.3184 71.2628 36.7145 70.6655 36.7645L70.6693 36.7626ZM65.1036 36.7126C65.1188 36.7318 65.1302 36.7453 65.1302 36.7453C65.1226 36.7529 65.1131 36.7376 65.1036 36.7126Z" fill="#111C26"/>
<path d="M80.4485 41.711C78.6584 41.9476 76.8379 41.938 75.044 41.7303C74.8316 32.1622 74.6212 22.596 74.4088 13.028C74.3462 10.1893 74.2836 7.35059 74.221 4.51191C74.1888 3.07525 71.9834 3.06948 72.0156 4.51191C72.2356 14.4262 72.4537 24.3404 72.6737 34.2547C72.7362 37.0722 72.7988 39.8878 72.8614 42.7054C72.8709 43.1458 73.1932 43.7131 73.6711 43.7843C75.922 44.117 78.1862 44.2478 80.4485 43.9478C81.0382 43.8689 81.5521 43.49 81.5521 42.8284C81.5521 42.2842 81.0439 41.6322 80.4485 41.7091V41.711Z" fill="#111C26"/>
<path d="M83.5811 15.8763C83.6399 15.8186 83.6987 15.7609 83.7613 15.7051C83.7594 15.707 83.839 15.6436 83.8845 15.6032C83.9225 15.5897 84.0438 15.5301 84.0514 15.5166C84.2429 15.4666 84.4231 15.482 84.6829 15.5609C85.3049 15.7493 85.8225 16.2032 86.2644 16.686C86.6038 17.0571 86.9072 17.5976 87.0532 18.0591C87.2884 18.8092 87.3225 19.3265 87.3225 20.1362C87.3225 21.5748 89.5279 21.5787 89.5279 20.1362C89.5279 18.6938 89.3136 17.3552 88.612 16.1571C87.9047 14.9531 86.7119 13.9107 85.4054 13.4472C84.6336 13.1741 83.7708 13.1741 83.0293 13.528C82.4813 13.7896 81.9769 14.2838 81.5786 14.7416C80.6077 15.8551 79.8682 17.4187 79.9782 18.9265C80.0976 20.5555 80.8087 22.0595 81.8233 23.3096C82.3182 23.9211 82.9136 24.4423 83.5527 24.8924C83.8921 25.1309 84.2486 25.3405 84.5994 25.5617C84.772 25.6694 84.9427 25.779 85.1114 25.8925C85.2593 25.9925 85.4623 26.1406 85.5116 26.1809C86.0046 26.6041 86.4085 27.0945 86.7252 27.6638C86.8845 27.9484 86.9831 28.1696 87.0703 28.4811C87.0931 28.5658 87.1158 28.6523 87.1329 28.7388C87.1329 28.7446 87.1443 28.8389 87.1481 28.8619C87.1519 28.9139 87.1537 28.9639 87.1537 29.0158C87.1537 29.0466 87.1462 29.185 87.15 29.1966C87.0627 29.7408 86.6759 30.237 86.3137 30.6236C86.2303 30.714 86.143 30.8025 86.052 30.8871C86.0179 30.9198 85.8756 31.0333 85.8756 31.039C85.6158 31.216 85.3845 31.3179 85.0564 31.3814C83.8352 31.6122 82.6538 30.7332 82.066 29.7524C81.3814 28.6042 81.2601 27.358 81.7702 26.0925C81.9958 25.5328 81.5255 24.8635 81.0003 24.7174C80.3688 24.5404 79.8701 24.9366 79.6444 25.4982C78.573 28.1523 79.7677 31.4814 82.1722 32.9334C83.5565 33.77 85.375 33.9123 86.7991 33.093C87.9369 32.4391 89.033 31.0602 89.2833 29.7524C89.5905 28.1426 88.8035 26.5829 87.8174 25.3751C86.8067 24.1385 85.32 23.6057 84.1671 22.5595C83.1639 21.6498 82.3846 20.4016 82.1968 19.0592C82.1172 18.4938 82.2082 17.9784 82.413 17.5437C82.7088 16.9167 83.0938 16.3552 83.5849 15.8763H83.5811Z" fill="#111C26"/>
<path d="M95.2945 34.722C94.8034 34.097 94.3142 33.4681 93.8268 32.8392C93.8211 32.8334 93.7832 32.7834 93.7377 32.7238C93.7472 32.7065 93.7566 32.6892 93.7642 32.6738C93.969 32.3565 94.1795 32.043 94.3938 31.7333C95.2282 30.5255 96.1403 29.3754 97.1169 28.283C98.2471 27.0195 99.4626 25.8386 100.75 24.7405C101.207 24.352 101.147 23.5596 100.75 23.1596C100.299 22.7018 99.6484 22.7691 99.1914 23.1596C96.8704 25.1386 94.8034 27.4022 93.0076 29.8793C92.8825 24.3577 92.598 18.8361 92.4956 13.3165C92.4425 10.4989 92.4425 7.67947 92.5316 4.86194C92.5771 3.42144 90.3718 3.42336 90.3262 4.86194C90.0058 14.9147 90.8838 24.9539 90.8648 35.0047C90.8591 37.8204 90.7814 40.636 90.5898 43.4458C90.5481 44.0497 91.1265 44.5651 91.6935 44.5651C92.3249 44.5651 92.7554 44.0516 92.7971 43.4458C92.9792 40.7783 93.0531 38.1088 93.0664 35.4413C94.0544 36.7087 95.0499 37.9684 96.0739 39.2051C97.3141 40.6994 98.596 42.1572 99.9575 43.54C100.963 44.5594 102.521 42.9785 101.516 41.9591C99.2844 39.6917 97.2629 37.2242 95.2945 34.722Z" fill="#111C26"/>
<path d="M111.258 13.3684C111.275 12.3471 111.278 11.3259 111.258 10.3027C111.239 9.27382 111.246 8.20835 111.011 7.20058C110.619 5.51775 109.284 4.27342 107.598 4.00994C105.84 3.73684 104.232 4.42343 103.174 5.86586C102.618 6.62169 102.277 7.51791 101.968 8.40067C101.643 9.32959 101.332 10.2604 101.107 11.2201C100.576 13.4799 100.373 15.8224 100.367 18.1418C100.363 19.5804 102.569 19.5843 102.573 18.1418C102.576 16.2898 102.701 14.4358 103.06 12.6183C103.358 11.1047 103.815 9.46614 104.438 8.10065C104.715 7.49483 105.043 6.91786 105.536 6.56783C106.02 6.22358 106.435 6.15626 107.016 6.17934C107.029 6.17934 107.11 6.18896 107.158 6.1928C107.203 6.20242 107.283 6.21588 107.296 6.21973C107.427 6.2505 107.558 6.28512 107.685 6.32935C107.715 6.33897 107.736 6.34666 107.755 6.35436C107.82 6.3832 107.884 6.41782 107.945 6.45244C108.131 6.55629 108.199 6.60438 108.277 6.67554C108.517 6.89478 108.55 6.91402 108.705 7.24097C108.859 7.56599 108.931 7.9391 108.971 8.29682C109.174 10.1681 109.081 12.1087 109.041 13.9877C109.001 15.9128 108.923 17.838 108.872 19.765C108.821 21.694 108.798 23.6211 108.868 25.5501C108.885 26.0309 108.891 26.5098 108.891 26.9906C108.5 26.7945 108.089 26.6406 107.672 26.5329C106.615 26.2598 105.339 26.1579 104.279 26.4694C102.026 27.131 100.771 29.7735 100.305 31.9141C99.8039 34.2143 99.7964 36.5991 100.655 38.8147C101.103 39.9686 101.683 41.011 102.72 41.7168C103.451 42.213 104.393 42.4419 105.269 42.3842C106.509 42.3034 107.732 41.8149 108.777 41.0725C108.77 41.6764 108.764 42.2803 108.753 42.8823C108.726 44.3228 110.931 44.3228 110.958 42.8823C110.984 41.4302 110.998 39.9782 111.009 38.5262C111.055 38.3512 111.055 38.1838 111.013 38.03C111.024 36.0414 111.026 34.0547 111.028 32.066C111.028 29.9524 111.153 27.8426 111.079 25.7309C111.007 23.6827 111.026 21.6363 111.083 19.5881C111.14 17.5149 111.225 15.4435 111.259 13.3703L111.258 13.3684ZM107.789 6.3659C107.821 6.37743 107.81 6.37359 107.789 6.3659V6.3659ZM108.823 31.4275C108.815 33.6046 108.813 35.7798 108.804 37.9569C108.059 39.0166 106.849 39.8109 105.612 40.0898C105.523 40.1109 105.432 40.1282 105.343 40.1417C105.334 40.1417 105.332 40.1436 105.324 40.1455C105.307 40.1455 105.296 40.1455 105.269 40.1455C105.136 40.1455 105.007 40.1551 104.875 40.1455C104.848 40.1455 104.731 40.1321 104.655 40.1263C104.609 40.1167 104.556 40.1071 104.548 40.1051C104.42 40.0648 104.287 40.0321 104.164 39.9782C103.581 39.7186 103.191 39.1339 102.895 38.4839C102.161 36.8703 102.032 35.1163 102.273 33.3854C102.493 31.8122 103.018 29.9389 104.321 28.9177C105.002 28.385 106.079 28.4715 106.816 28.6254C107.645 28.7985 108.297 29.1139 108.847 29.7312C108.836 30.2967 108.825 30.8621 108.823 31.4294V31.4275Z" fill="#111C26"/>
<path d="M19.2284 48.0002C22.7403 48.0002 24.7219 46.5193 25.8104 45.1076C27.7276 42.6228 27.9494 38.9514 27.2004 35.8281C28.5904 36.5243 30.407 37.3859 32.2749 37.9859C35.2483 38.9398 37.448 38.936 39.001 37.9763C40.4479 37.082 41.1932 35.4434 41.2178 33.1067C41.2538 29.641 38.9309 28.4659 37.1465 27.9447C40.0857 26.7735 44.8132 24.8291 45.8675 21.2519C46.3833 19.4998 45.9586 17.6285 44.6027 15.688C43.664 14.3436 42.458 13.5917 41.0168 13.4532C38.4246 13.2051 35.6218 15.0591 33.297 17.0516C34.5125 14.4513 35.4569 11.2338 34.632 8.10853C33.8981 5.32754 31.8843 3.04081 28.6492 1.31183C25.818 -0.201754 23.3813 -0.403693 21.4072 0.711781C19.4483 1.81764 18.0811 4.11398 17.2278 7.73157C16.5603 10.5626 16.346 13.682 16.2038 15.7476C16.1715 16.2092 16.1393 16.7015 16.1033 17.1131C15.5742 16.8458 14.8896 16.465 14.2904 16.1342C10.7197 14.1571 5.82725 11.4511 2.85386 12.6204C1.88296 13.0031 1.17753 13.7705 0.815342 14.8398C-0.360361 18.3113 -0.265546 21.1692 1.09599 23.3347C3.4986 27.1504 9.21024 27.7505 12.6236 28.1101C13.147 28.1659 13.7424 28.2274 14.2089 28.2967C14.0458 28.6698 13.8372 29.1256 13.6419 29.5506C12.8113 31.3585 11.6716 33.8356 10.9567 36.4204C10.0503 39.6976 10.0787 42.2305 11.044 44.1653C11.9561 45.9923 13.6646 47.1732 16.1241 47.6713C17.2714 47.904 18.303 48.0079 19.2265 48.0079L19.2284 48.0002ZM25.3629 32.6413C25.105 32.6413 24.8338 32.722 24.5892 32.9624C24.2422 33.3067 24.155 33.8241 24.3673 34.2799C25.6492 37.032 25.9868 41.2843 24.0905 43.7422C22.6379 45.625 20.1026 46.2154 16.5527 45.4942C14.7588 45.1307 13.5926 44.3653 12.9915 43.1575C11.3246 39.8168 14.1179 33.7413 15.6197 30.4776C15.9478 29.766 16.2303 29.1525 16.4086 28.6909C16.5811 28.2467 16.987 27.2081 16.1659 26.6177C15.5951 26.2061 14.6867 26.0965 12.8511 25.9023C9.63501 25.5638 4.77291 25.0541 2.9373 22.1366C1.95122 20.5691 1.93226 18.3536 2.88041 15.5514C3.07952 14.9648 3.3943 14.7744 3.64462 14.6764C5.67365 13.8782 10.6002 16.6054 13.2475 18.0689C14.0989 18.5401 14.8328 18.9459 15.413 19.2229C15.9914 19.4998 16.8637 19.9172 17.5577 19.4229C18.1702 18.9882 18.2176 18.2709 18.3807 15.8918C18.6329 12.1954 19.1601 4.50632 22.4691 2.63693C23.7586 1.90803 25.4956 2.11959 27.6328 3.26006C30.3084 4.68902 31.9544 6.51032 32.5252 8.67203C33.6118 12.7858 30.7768 17.3458 29.2541 19.796C28.3875 21.1903 27.9912 21.8269 28.4235 22.5578C28.6056 22.8655 28.9128 23.0693 29.2655 23.1174C29.988 23.2155 30.4412 22.7732 31.9411 21.3077C34.0631 19.2363 38.0131 15.3783 40.812 15.6476C41.6009 15.7226 42.2589 16.1515 42.8221 16.9573C43.7835 18.3324 44.0945 19.5287 43.7759 20.6095C43.006 23.2251 38.7318 24.9272 36.1775 25.9446C35.5346 26.2004 34.979 26.4215 34.5656 26.6215C34.175 26.81 33.3653 27.2024 33.3387 28.0524C33.3292 28.3563 33.4146 29.1044 34.4063 29.5025C34.7306 29.6333 35.1117 29.7179 35.5555 29.818C37.6092 30.2776 39.0598 30.7796 39.0352 33.0759C39.0181 34.6203 38.6351 35.605 37.8633 36.0819C36.9075 36.6724 35.2028 36.6012 32.931 35.8723C30.8337 35.1992 28.7402 34.1356 27.3559 33.4317C26.8989 33.199 26.5367 33.0144 26.256 32.8874C26.0512 32.7932 25.7194 32.6413 25.3629 32.6413Z" fill="#111C26"/>
<path d="M23.478 30.3755C23.5823 30.3755 23.6809 30.3698 23.7701 30.3601C25.1487 30.2063 26.3585 28.9273 26.7131 27.2541C27.0943 25.4521 26.3926 23.7692 24.8775 22.8615C24.6291 22.7114 23.8289 22.3306 22.9452 22.1018C21.5855 21.7498 20.5502 21.8883 19.8675 22.5134C18.3865 23.8692 19.5887 26.5117 19.9832 27.381C21.1323 29.9082 22.5697 30.3774 23.478 30.3774V30.3755ZM23.7682 24.7655C24.7618 25.3617 24.667 26.379 24.5798 26.7887C24.411 27.583 23.9028 28.1196 23.5292 28.1619C23.167 28.2023 22.564 27.7753 21.9629 26.4541C21.2404 24.8655 21.3144 24.2712 21.3447 24.15C21.741 23.9846 23.1765 24.4193 23.7682 24.7655Z" fill="#111C26"/>
</g>
<defs>
<clipPath id="clip0_9_136">
<rect width="111.273" height="48" fill="white"/>
</clipPath>
</defs>
</svg>
