<svg width="86" height="65" viewBox="0 0 86 65" fill="none" xmlns="http://www.w3.org/2000/svg">
<path d="M73.4809 36.9589C70.5038 36.9745 67.9164 37.6915 65.7498 38.7514C64.9549 37.1771 64.16 35.7743 64.0197 34.7456C63.8638 33.5454 63.6768 32.8128 63.8638 31.3788C64.0508 29.9448 64.8925 27.9029 64.8769 27.747C64.8614 27.5912 64.6899 26.8586 62.9753 26.843C61.2608 26.8274 59.78 27.1703 59.6086 27.6223C59.4371 28.0744 59.1098 29.1031 58.8916 30.163C58.5954 31.7217 55.4624 37.2862 53.6699 40.201C53.0932 39.0632 52.5944 38.0656 52.4853 37.2707C52.3295 36.0705 52.1424 35.3379 52.3295 33.9039C52.5165 32.4699 53.3582 30.428 53.3426 30.2721C53.327 30.1163 53.1556 29.3837 51.441 29.3681C49.7264 29.3525 48.2457 29.6954 48.0742 30.1474C47.9028 30.5994 47.7157 31.6594 47.3572 32.6881C46.9987 33.7168 42.837 43.0067 41.7459 45.407C41.1848 46.6384 40.7016 47.6204 40.3587 48.2906C40.3587 48.2906 40.3431 48.3374 40.2963 48.4153C40.0002 48.992 39.8287 49.3038 39.8287 49.3038C39.8287 49.3038 39.8287 49.3038 39.8287 49.3194C39.5949 49.7402 39.3455 50.1299 39.2208 50.1299C39.1273 50.1299 38.9559 49.0076 39.252 47.4801C39.8755 44.2536 41.3563 39.2346 41.3407 39.0632C41.3407 38.9696 41.6212 38.0968 40.3743 37.6447C39.1585 37.1927 38.7221 37.9409 38.6129 37.9409C38.5038 37.9409 38.4259 38.2059 38.4259 38.2059C38.4259 38.2059 39.782 32.5634 35.8385 32.5634C33.3757 32.5634 29.9778 35.2599 28.2944 37.6915C27.2345 38.2682 24.9744 39.4996 22.5584 40.8245C21.6388 41.3388 20.688 41.8532 19.7995 42.3364C19.7372 42.2741 19.6748 42.1961 19.6125 42.1338C14.8429 37.0369 6.02065 33.4363 6.39473 26.5936C6.53502 24.0997 7.3923 17.5532 23.3377 9.60383C36.4619 3.13525 46.9052 4.92775 48.7133 8.90242C51.3007 14.5761 43.1176 25.1128 29.5569 26.6404C24.3821 27.2171 21.6699 25.2219 20.9841 24.4738C20.2671 23.6944 20.158 23.6477 19.893 23.8035C19.4566 24.0373 19.7372 24.7388 19.893 25.144C20.2983 26.2039 21.9661 28.0744 24.7873 28.994C27.2812 29.8045 33.3446 30.2565 40.686 27.4197C48.9003 24.24 55.3221 15.4022 53.4361 7.99837C51.5501 0.485466 39.0806 -1.99286 27.2812 2.20003C20.2671 4.69394 12.6607 8.62185 7.18967 13.7344C0.689912 19.8133 -0.338826 25.0973 0.0820215 27.3106C1.59396 35.1664 12.4269 40.2789 16.7601 44.0666C16.5418 44.1913 16.3392 44.3004 16.1677 44.3939C14.0012 45.4694 5.74008 49.787 3.68261 54.354C1.34456 59.5288 4.05669 63.2385 5.84919 63.7373C11.4137 65.2804 17.1341 62.5059 20.2048 57.9234C23.2754 53.3408 22.9013 47.3866 21.4829 44.6589C21.4673 44.6277 21.4517 44.5965 21.4205 44.5653C21.9817 44.238 22.5584 43.8951 23.1195 43.5678C24.2262 42.9131 25.3173 42.3052 26.2525 41.8065C25.7225 43.256 25.3329 44.9862 25.1458 47.4801C24.912 50.4105 26.1122 54.2137 27.6865 55.71C28.3879 56.3647 29.214 56.3803 29.744 56.3803C31.5832 56.3803 32.4093 54.8527 33.329 53.0446C34.4512 50.8313 35.4644 48.2595 35.4644 48.2595C35.4644 48.2595 34.2018 55.2112 37.631 55.2112C38.8779 55.2112 40.1405 53.5902 40.7016 52.7641C40.7016 52.7797 40.7016 52.7797 40.7016 52.7797C40.7016 52.7797 40.7328 52.7329 40.7951 52.6238C40.9198 52.4212 40.9977 52.2965 40.9977 52.2965C40.9977 52.2965 40.9977 52.2809 40.9977 52.2653C41.4965 51.3924 42.6188 49.4129 44.2866 46.124C46.4376 41.8844 48.5107 36.5848 48.5107 36.5848C48.5107 36.5848 48.6977 37.8786 49.3368 40.0295C49.7109 41.2921 50.4902 42.6793 51.1137 44.0198C50.6149 44.7212 50.3032 45.1109 50.3032 45.1109C50.3032 45.1109 50.3032 45.1109 50.3187 45.1265C49.9135 45.6564 49.477 46.2332 48.9939 46.7943C47.2949 48.8206 45.2686 51.143 44.988 51.8133C44.6607 52.6082 44.7386 53.1849 45.3621 53.6525C45.8141 53.9955 46.6246 54.0422 47.4507 53.9954C48.9783 53.8863 50.0538 53.5123 50.5837 53.2785C51.4098 52.9823 52.3762 52.5303 53.2803 51.86C54.9481 50.6287 55.9612 48.8673 55.8677 46.5449C55.8209 45.2668 55.4001 43.9886 54.8857 42.7884C55.0416 42.5702 55.1819 42.352 55.3377 42.1338C57.9719 38.2838 60.0138 34.0597 60.0138 34.0597C60.0138 34.0597 60.2009 35.3535 60.8399 37.5045C61.1517 38.5956 61.7907 39.7802 62.3519 40.9336C59.8735 42.9443 58.346 45.2823 57.8005 46.8099C56.8185 49.6467 57.5823 50.9248 59.0318 51.221C59.6865 51.3613 60.6217 51.0495 61.3075 50.7534C62.1804 50.4728 63.2091 49.9896 64.1911 49.2726C65.8589 48.0412 67.4644 46.3267 67.3709 44.0042C67.3241 42.9443 67.0435 41.9 66.6539 40.8868C68.7581 40.014 71.4702 39.5308 74.9305 39.936C82.3499 40.8089 83.8151 45.4382 83.5345 47.3866C83.254 49.3349 81.6953 50.3949 81.1809 50.7222C80.6665 51.0495 80.4951 51.1586 80.5418 51.3924C80.6042 51.7353 80.8536 51.7198 81.29 51.6574C81.8979 51.5483 85.1867 50.0831 85.327 46.4981C85.5608 41.9156 81.1965 36.9122 73.4809 36.9589ZM16.2457 56.2556C13.7829 58.9365 10.3538 59.9497 8.87306 59.0924C7.28319 58.1728 7.90667 54.2137 10.9305 51.3768C12.7698 49.6467 15.139 48.0412 16.7133 47.0593C17.0718 46.841 17.6017 46.5293 18.2408 46.1396C18.3499 46.0773 18.4123 46.0461 18.4123 46.0461C18.537 45.9682 18.6617 45.8902 18.7864 45.8123C19.893 49.8649 18.8331 53.4343 16.2457 56.2556ZM34.1707 44.0666C33.3134 46.1552 31.5209 51.5015 30.4298 51.2054C29.4946 50.956 28.9179 46.9034 30.2428 42.8975C30.913 40.8868 32.3314 38.4864 33.1575 37.5512C34.498 36.0549 35.9788 35.5561 36.3373 36.164C36.7893 36.9589 34.7006 42.7573 34.1707 44.0666ZM48.9627 51.143C48.6042 51.3301 48.2613 51.4548 48.1054 51.3613C47.9963 51.2989 48.2613 51.0495 48.2613 51.0495C48.2613 51.0495 50.1161 49.0544 50.8487 48.1503C51.2695 47.6204 51.7683 46.9969 52.2983 46.2955C52.2983 46.3578 52.2983 46.4358 52.2983 46.4981C52.2983 48.8829 49.9914 50.4884 48.9627 51.143ZM60.3723 48.54C60.1073 48.353 60.1541 47.7295 61.0426 45.7811C61.3855 45.0174 62.196 43.7392 63.5832 42.5079C63.7391 43.0067 63.8482 43.4898 63.8326 43.9419C63.817 46.9501 61.666 48.0724 60.3723 48.54Z" fill="#CD6799"/>
</svg>
