<svg width="65" height="65" viewBox="0 0 65 65" fill="none" xmlns="http://www.w3.org/2000/svg">
<path fill-rule="evenodd" clip-rule="evenodd" d="M46.3635 63.7311C47.3715 64.1237 48.5209 64.0986 49.5382 63.609L62.7148 57.2687C64.0993 56.6025 64.9798 55.2012 64.9798 53.6639V10.6726C64.9798 9.1353 64.0994 7.73402 62.7148 7.06778L49.5382 0.727295C48.2031 0.0848082 46.6404 0.242177 45.4685 1.09413C45.3011 1.21584 45.1416 1.35173 44.992 1.50147L19.7671 24.5146L8.77965 16.1743C7.75687 15.3978 6.32618 15.4615 5.37623 16.3256L1.8522 19.5312C0.690225 20.5882 0.688893 22.4163 1.84932 23.4749L11.378 32.1681L1.84932 40.8614C0.688893 41.9201 0.690225 43.7481 1.8522 44.8051L5.37623 48.0107C6.32618 48.8748 7.75687 48.9384 8.77965 48.162L19.7671 39.8216L44.992 62.8348C45.391 63.2341 45.8596 63.5348 46.3635 63.7311ZM48.9896 17.6394L29.8497 32.1681L48.9896 46.6969V17.6394Z" fill="#111C26"/>
</svg>
