<svg width="65" height="65" viewBox="0 0 65 65" fill="none" xmlns="http://www.w3.org/2000/svg">
<mask id="mask0_11_510" style="mask-type:alpha" maskUnits="userSpaceOnUse" x="0" y="0" width="65" height="65">
<path fill-rule="evenodd" clip-rule="evenodd" d="M46.3635 63.731C47.3715 64.1237 48.5208 64.0985 49.5383 63.6089L62.7148 57.2686C64.0993 56.6024 64.9799 55.2011 64.9799 53.6638V10.6725C64.9799 9.13526 64.0994 7.73398 62.7148 7.06774L49.5383 0.727233C48.203 0.0847468 46.6404 0.242116 45.4685 1.09408C45.3011 1.21578 45.1416 1.35166 44.992 1.50141L19.7671 24.5146L8.77967 16.1742C7.75682 15.3978 6.32618 15.4614 5.37623 16.3255L1.8522 19.5312C0.690225 20.5881 0.688894 22.4162 1.84932 23.4749L11.378 32.1681L1.84932 40.8613C0.688894 41.92 0.690225 43.7481 1.8522 44.805L5.37623 48.0107C6.32618 48.8748 7.75682 48.9384 8.77967 48.162L19.7671 39.8216L44.992 62.8347C45.3911 63.234 45.8596 63.5347 46.3635 63.731ZM48.9896 17.6393L29.8497 32.1681L48.9896 46.6968V17.6393Z" fill="white"/>
</mask>
<g mask="url(#mask0_11_510)">
<path d="M62.7152 7.07762L49.5283 0.728399C48.0019 -0.00652283 46.1778 0.303483 44.9799 1.50138L1.81097 40.8613C0.649835 41.9199 0.65117 43.748 1.81385 44.805L5.34002 48.0106C6.29055 48.8747 7.72209 48.9384 8.74551 48.162L60.7309 8.72479C62.4749 7.40172 64.9799 8.64562 64.9799 10.8347V10.6817C64.9799 9.14501 64.0996 7.74424 62.7152 7.07762Z" fill="#0065A9"/>
<g filter="url(#filter0_d_11_510)">
<path d="M62.7152 57.2585L49.5283 63.6077C48.0019 64.3427 46.1778 64.0326 44.9799 62.8347L1.81097 23.4748C0.649835 22.4162 0.65117 20.5881 1.81385 19.5311L5.34002 16.3255C6.29055 15.4613 7.72209 15.3977 8.74551 16.1741L60.7309 55.6113C62.4749 56.9344 64.9799 55.6905 64.9799 53.5014V53.6545C64.9799 55.1911 64.0996 56.5918 62.7152 57.2585Z" fill="#007ACC"/>
</g>
<g filter="url(#filter1_d_11_510)">
<path d="M49.5289 63.6089C48.002 64.3434 46.1779 64.0327 44.9799 62.8347C46.456 64.3108 48.9799 63.2653 48.9799 61.1778V3.15821C48.9799 1.0707 46.456 0.0252593 44.9799 1.50135C46.1779 0.303344 48.002 -0.00709909 49.5289 0.727172L62.7134 7.06769C64.0988 7.73393 64.9799 9.13521 64.9799 10.6725V53.6638C64.9799 55.2011 64.0988 56.6023 62.7134 57.2686L49.5289 63.6089Z" fill="#1F9CF0"/>
</g>
<g style="mix-blend-mode:overlay" opacity="0.25">
<path fill-rule="evenodd" clip-rule="evenodd" d="M46.3246 63.731C47.3326 64.1237 48.482 64.0985 49.4994 63.609L62.6759 57.2687C64.0605 56.6024 64.941 55.2012 64.941 53.6638V10.6726C64.941 9.13524 64.0605 7.73396 62.6759 7.06772L49.4994 0.727234C48.1642 0.0847472 46.6015 0.242116 45.4296 1.09407C45.2622 1.21578 45.1028 1.35167 44.9531 1.50141L19.7282 24.5146L8.74078 16.1742C7.71799 15.3978 6.2873 15.4614 5.33735 16.3255L1.81332 19.5311C0.651346 20.5882 0.650014 22.4162 1.81044 23.4749L11.3391 32.1681L1.81044 40.8613C0.650014 41.92 0.651346 43.748 1.81332 44.805L5.33735 48.0106C6.2873 48.8748 7.71799 48.9384 8.74078 48.162L19.7282 39.8216L44.9531 62.8348C45.3522 63.234 45.8207 63.5347 46.3246 63.731ZM48.9507 17.6394L29.8108 32.1681L48.9507 46.6968V17.6394Z" fill="url(#paint0_linear_11_510)"/>
</g>
</g>
<defs>
<filter id="filter0_d_11_510" x="-7.39236" y="7.29862" width="80.7056" height="65.0372" filterUnits="userSpaceOnUse" color-interpolation-filters="sRGB">
<feFlood flood-opacity="0" result="BackgroundImageFix"/>
<feColorMatrix in="SourceAlpha" type="matrix" values="0 0 0 0 0 0 0 0 0 0 0 0 0 0 0 0 0 0 127 0" result="hardAlpha"/>
<feOffset/>
<feGaussianBlur stdDeviation="4.16667"/>
<feColorMatrix type="matrix" values="0 0 0 0 0 0 0 0 0 0 0 0 0 0 0 0 0 0 0.25 0"/>
<feBlend mode="overlay" in2="BackgroundImageFix" result="effect1_dropShadow_11_510"/>
<feBlend mode="normal" in="SourceGraphic" in2="effect1_dropShadow_11_510" result="shape"/>
</filter>
<filter id="filter1_d_11_510" x="36.6465" y="-8.00033" width="36.6667" height="80.3368" filterUnits="userSpaceOnUse" color-interpolation-filters="sRGB">
<feFlood flood-opacity="0" result="BackgroundImageFix"/>
<feColorMatrix in="SourceAlpha" type="matrix" values="0 0 0 0 0 0 0 0 0 0 0 0 0 0 0 0 0 0 127 0" result="hardAlpha"/>
<feOffset/>
<feGaussianBlur stdDeviation="4.16667"/>
<feColorMatrix type="matrix" values="0 0 0 0 0 0 0 0 0 0 0 0 0 0 0 0 0 0 0.25 0"/>
<feBlend mode="overlay" in2="BackgroundImageFix" result="effect1_dropShadow_11_510"/>
<feBlend mode="normal" in="SourceGraphic" in2="effect1_dropShadow_11_510" result="shape"/>
</filter>
<linearGradient id="paint0_linear_11_510" x1="32.941" y1="0.333068" x2="32.941" y2="64.0031" gradientUnits="userSpaceOnUse">
<stop stop-color="white"/>
<stop offset="1" stop-color="white" stop-opacity="0"/>
</linearGradient>
</defs>
</svg>
